<?xml version="1.0" encoding="UTF-8"?>
<svg id="Layer_2" data-name="Layer 2" xmlns="http://www.w3.org/2000/svg" xmlns:xlink="http://www.w3.org/1999/xlink" viewBox="0 0 1196.12 1197.17">
  <defs>
    <style>
      .cls-1 {
        fill: url(#linear-gradient);
      }

      .cls-1, .cls-2, .cls-3, .cls-4, .cls-5, .cls-6, .cls-7, .cls-8, .cls-9, .cls-10, .cls-11, .cls-12, .cls-13, .cls-14, .cls-15, .cls-16, .cls-17, .cls-18, .cls-19, .cls-20, .cls-21, .cls-22, .cls-23, .cls-24, .cls-25, .cls-26, .cls-27, .cls-28, .cls-29, .cls-30, .cls-31, .cls-32, .cls-33, .cls-34, .cls-35, .cls-36, .cls-37, .cls-38, .cls-39, .cls-40, .cls-41, .cls-42, .cls-43, .cls-44, .cls-45, .cls-46, .cls-47, .cls-48, .cls-49, .cls-50, .cls-51, .cls-52, .cls-53, .cls-54, .cls-55, .cls-56, .cls-57, .cls-58, .cls-59, .cls-60, .cls-61, .cls-62, .cls-63, .cls-64, .cls-65, .cls-66, .cls-67, .cls-68, .cls-69, .cls-70, .cls-71, .cls-72, .cls-73, .cls-74, .cls-75, .cls-76, .cls-77, .cls-78, .cls-79, .cls-80, .cls-81, .cls-82, .cls-83, .cls-84, .cls-85, .cls-86, .cls-87, .cls-88, .cls-89, .cls-90, .cls-91, .cls-92, .cls-93, .cls-94, .cls-95, .cls-96, .cls-97, .cls-98, .cls-99, .cls-100, .cls-101, .cls-102, .cls-103, .cls-104, .cls-105, .cls-106, .cls-107, .cls-108, .cls-109, .cls-110, .cls-111, .cls-112, .cls-113, .cls-114, .cls-115, .cls-116, .cls-117, .cls-118, .cls-119, .cls-120, .cls-121, .cls-122, .cls-123, .cls-124, .cls-125, .cls-126, .cls-127, .cls-128, .cls-129, .cls-130, .cls-131, .cls-132, .cls-133, .cls-134, .cls-135, .cls-136, .cls-137, .cls-138, .cls-139, .cls-140, .cls-141, .cls-142, .cls-143, .cls-144, .cls-145, .cls-146, .cls-147, .cls-148, .cls-149, .cls-150, .cls-151, .cls-152, .cls-153, .cls-154, .cls-155, .cls-156, .cls-157, .cls-158 {
        fill-rule: evenodd;
      }

      .cls-2 {
        fill: url(#linear-gradient-39);
      }

      .cls-3 {
        fill: url(#linear-gradient-34);
      }

      .cls-4 {
        fill: url(#linear-gradient-37);
      }

      .cls-5 {
        fill: url(#linear-gradient-35);
      }

      .cls-6 {
        fill: url(#linear-gradient-36);
      }

      .cls-7 {
        fill: url(#linear-gradient-38);
      }

      .cls-8 {
        fill: url(#linear-gradient-31);
      }

      .cls-9 {
        fill: url(#linear-gradient-29);
      }

      .cls-10 {
        fill: url(#linear-gradient-28);
      }

      .cls-11 {
        fill: url(#linear-gradient-25);
      }

      .cls-12 {
        fill: url(#linear-gradient-32);
      }

      .cls-13 {
        fill: url(#linear-gradient-30);
      }

      .cls-14 {
        fill: url(#linear-gradient-33);
      }

      .cls-15 {
        fill: url(#linear-gradient-14);
      }

      .cls-16 {
        fill: url(#linear-gradient-11);
      }

      .cls-17 {
        fill: url(#linear-gradient-13);
      }

      .cls-18 {
        fill: url(#linear-gradient-12);
      }

      .cls-19 {
        fill: url(#linear-gradient-10);
      }

      .cls-20 {
        fill: url(#linear-gradient-15);
      }

      .cls-21 {
        fill: url(#linear-gradient-19);
      }

      .cls-22 {
        fill: url(#linear-gradient-17);
      }

      .cls-23 {
        fill: url(#linear-gradient-16);
      }

      .cls-24 {
        fill: url(#linear-gradient-23);
      }

      .cls-25 {
        fill: url(#linear-gradient-22);
      }

      .cls-26 {
        fill: url(#linear-gradient-20);
      }

      .cls-27 {
        fill: url(#linear-gradient-18);
      }

      .cls-28 {
        fill: url(#linear-gradient-21);
      }

      .cls-29 {
        fill: url(#linear-gradient-26);
      }

      .cls-30 {
        fill: url(#linear-gradient-24);
      }

      .cls-31 {
        fill: url(#linear-gradient-27);
      }

      .cls-32 {
        fill: url(#linear-gradient-42);
      }

      .cls-33 {
        fill: url(#linear-gradient-43);
      }

      .cls-34 {
        fill: url(#linear-gradient-40);
      }

      .cls-35 {
        fill: url(#linear-gradient-41);
      }

      .cls-36 {
        fill: url(#linear-gradient-45);
      }

      .cls-37 {
        fill: url(#linear-gradient-46);
      }

      .cls-38 {
        fill: url(#linear-gradient-44);
      }

      .cls-39 {
        fill: url(#linear-gradient-49);
      }

      .cls-40 {
        fill: url(#linear-gradient-48);
      }

      .cls-41 {
        fill: url(#linear-gradient-47);
      }

      .cls-42 {
        fill: url(#linear-gradient-72);
      }

      .cls-43 {
        fill: url(#linear-gradient-73);
      }

      .cls-44 {
        fill: url(#linear-gradient-70);
      }

      .cls-45 {
        fill: url(#linear-gradient-71);
      }

      .cls-46 {
        fill: url(#linear-gradient-77);
      }

      .cls-47 {
        fill: url(#linear-gradient-78);
      }

      .cls-48 {
        fill: url(#linear-gradient-79);
      }

      .cls-49 {
        fill: url(#linear-gradient-76);
      }

      .cls-50 {
        fill: url(#linear-gradient-74);
      }

      .cls-51 {
        fill: url(#linear-gradient-75);
      }

      .cls-52 {
        fill: url(#linear-gradient-62);
      }

      .cls-53 {
        fill: url(#linear-gradient-60);
      }

      .cls-54 {
        fill: url(#linear-gradient-69);
      }

      .cls-55 {
        fill: url(#linear-gradient-67);
      }

      .cls-56 {
        fill: url(#linear-gradient-68);
      }

      .cls-57 {
        fill: url(#linear-gradient-65);
      }

      .cls-58 {
        fill: url(#linear-gradient-66);
      }

      .cls-59 {
        fill: url(#linear-gradient-63);
      }

      .cls-60 {
        fill: url(#linear-gradient-64);
      }

      .cls-61 {
        fill: url(#linear-gradient-51);
      }

      .cls-62 {
        fill: url(#linear-gradient-52);
      }

      .cls-63 {
        fill: url(#linear-gradient-50);
      }

      .cls-64 {
        fill: url(#linear-gradient-59);
      }

      .cls-65 {
        fill: url(#linear-gradient-57);
      }

      .cls-66 {
        fill: url(#linear-gradient-58);
      }

      .cls-67 {
        fill: url(#linear-gradient-55);
      }

      .cls-68 {
        fill: url(#linear-gradient-56);
      }

      .cls-69 {
        fill: url(#linear-gradient-53);
      }

      .cls-70 {
        fill: url(#linear-gradient-54);
      }

      .cls-71 {
        fill: url(#linear-gradient-61);
      }

      .cls-72 {
        fill: url(#Gold_02-57);
      }

      .cls-73 {
        fill: url(#Gold_02-59);
      }

      .cls-74 {
        fill: url(#Gold_02-51);
      }

      .cls-75 {
        fill: url(#Gold_02-50);
      }

      .cls-76 {
        fill: url(#Gold_02-53);
      }

      .cls-77 {
        fill: url(#Gold_02-52);
      }

      .cls-78 {
        fill: url(#Gold_02-55);
      }

      .cls-79 {
        fill: url(#Gold_02-56);
      }

      .cls-80 {
        fill: url(#Gold_02-54);
      }

      .cls-81 {
        fill: url(#Gold_02-58);
      }

      .cls-82 {
        fill: url(#Gold_02-32);
      }

      .cls-83 {
        fill: url(#Gold_02-39);
      }

      .cls-84 {
        fill: url(#Gold_02-36);
      }

      .cls-85 {
        fill: url(#Gold_02-34);
      }

      .cls-86 {
        fill: url(#Gold_02-33);
      }

      .cls-87 {
        fill: url(#Gold_02-30);
      }

      .cls-88 {
        fill: url(#Gold_02-38);
      }

      .cls-89 {
        fill: url(#Gold_02-37);
      }

      .cls-90 {
        fill: url(#Gold_02-35);
      }

      .cls-91 {
        fill: url(#Gold_02-31);
      }

      .cls-92 {
        fill: url(#Gold_02-69);
      }

      .cls-93 {
        fill: url(#Gold_02-67);
      }

      .cls-94 {
        fill: url(#Gold_02-68);
      }

      .cls-95 {
        fill: url(#Gold_02-65);
      }

      .cls-96 {
        fill: url(#Gold_02-66);
      }

      .cls-97 {
        fill: url(#Gold_02-63);
      }

      .cls-98 {
        fill: url(#Gold_02-64);
      }

      .cls-99 {
        fill: url(#Gold_02-61);
      }

      .cls-100 {
        fill: url(#Gold_02-62);
      }

      .cls-101 {
        fill: url(#Gold_02-60);
      }

      .cls-102 {
        fill: url(#Gold_02-80);
      }

      .cls-103 {
        fill: url(#Gold_02-22);
      }

      .cls-104 {
        fill: url(#Gold_02-21);
      }

      .cls-105 {
        fill: url(#Gold_02-11);
      }

      .cls-106 {
        fill: url(#Gold_02-12);
      }

      .cls-107 {
        fill: url(#Gold_02-17);
      }

      .cls-108 {
        fill: url(#Gold_02-10);
      }

      .cls-109 {
        fill: url(#Gold_02-13);
      }

      .cls-110 {
        fill: url(#Gold_02-25);
      }

      .cls-111 {
        fill: url(#Gold_02-24);
      }

      .cls-112 {
        fill: url(#Gold_02-27);
      }

      .cls-113 {
        fill: url(#Gold_02-26);
      }

      .cls-114 {
        fill: url(#Gold_02-29);
      }

      .cls-115 {
        fill: url(#Gold_02-28);
      }

      .cls-116 {
        fill: url(#Gold_02-23);
      }

      .cls-117 {
        fill: url(#Gold_02-20);
      }

      .cls-118 {
        fill: url(#Gold_02-18);
      }

      .cls-119 {
        fill: url(#Gold_02-15);
      }

      .cls-120 {
        fill: url(#Gold_02-16);
      }

      .cls-121 {
        fill: url(#Gold_02-14);
      }

      .cls-122 {
        fill: url(#Gold_02-19);
      }

      .cls-123 {
        fill: url(#Gold_02-46);
      }

      .cls-124 {
        fill: url(#Gold_02-47);
      }

      .cls-125 {
        fill: url(#Gold_02-43);
      }

      .cls-126 {
        fill: url(#Gold_02-44);
      }

      .cls-127 {
        fill: url(#Gold_02-48);
      }

      .cls-128 {
        fill: url(#Gold_02-49);
      }

      .cls-129 {
        fill: url(#Gold_02-42);
      }

      .cls-130 {
        fill: url(#Gold_02-40);
      }

      .cls-131 {
        fill: url(#Gold_02-41);
      }

      .cls-132 {
        fill: url(#Gold_02-45);
      }

      .cls-133 {
        fill: url(#Gold_02-71);
      }

      .cls-134 {
        fill: url(#Gold_02-70);
      }

      .cls-135 {
        fill: url(#Gold_02-76);
      }

      .cls-136 {
        fill: url(#Gold_02-72);
      }

      .cls-137 {
        fill: url(#Gold_02-74);
      }

      .cls-138 {
        fill: url(#Gold_02-77);
      }

      .cls-139 {
        fill: url(#Gold_02-75);
      }

      .cls-140 {
        fill: url(#Gold_02-78);
      }

      .cls-141 {
        fill: url(#Gold_02-79);
      }

      .cls-142 {
        fill: url(#Gold_02-73);
      }

      .cls-159 {
        fill: url(#linear-gradient-80);
      }

      .cls-143 {
        fill: url(#linear-gradient-8);
      }

      .cls-144 {
        fill: url(#linear-gradient-9);
      }

      .cls-145 {
        fill: url(#linear-gradient-3);
      }

      .cls-146 {
        fill: url(#linear-gradient-2);
      }

      .cls-147 {
        fill: url(#linear-gradient-4);
      }

      .cls-148 {
        fill: url(#linear-gradient-6);
      }

      .cls-149 {
        fill: url(#linear-gradient-7);
      }

      .cls-150 {
        fill: url(#linear-gradient-5);
      }

      .cls-151 {
        fill: url(#Gold_02-5);
      }

      .cls-152 {
        fill: url(#Gold_02-8);
      }

      .cls-153 {
        fill: url(#Gold_02-2);
      }

      .cls-154 {
        fill: url(#Gold_02-9);
      }

      .cls-155 {
        fill: url(#Gold_02-6);
      }

      .cls-156 {
        fill: url(#Gold_02-7);
      }

      .cls-157 {
        fill: url(#Gold_02-4);
      }

      .cls-158 {
        fill: url(#Gold_02-3);
      }

      .cls-160 {
        fill: url(#Gold_02);
      }
    </style>
    <linearGradient id="linear-gradient" x1="576.87" y1="76.5" x2="669.2" y2="76.5" gradientUnits="userSpaceOnUse">
      <stop offset="0" stop-color="#272361"/>
      <stop offset=".97" stop-color="#1ea4de"/>
    </linearGradient>
    <linearGradient id="linear-gradient-2" x1="649.02" y1="100.74" x2="726.36" y2="100.74" xlink:href="#linear-gradient"/>
    <linearGradient id="linear-gradient-3" x1="672.91" y1="165.85" x2="772.8" y2="165.85" xlink:href="#linear-gradient"/>
    <linearGradient id="linear-gradient-4" x1="475.33" y1="82.74" x2="527.52" y2="82.74" xlink:href="#linear-gradient"/>
    <linearGradient id="linear-gradient-5" x1="399.73" y1="131.42" x2="489.8" y2="131.42" xlink:href="#linear-gradient"/>
    <linearGradient id="linear-gradient-6" x1="417.68" y1="350.32" x2="472.69" y2="350.32" xlink:href="#linear-gradient"/>
    <linearGradient id="linear-gradient-7" x1="590.87" y1="351.52" x2="676.66" y2="351.52" xlink:href="#linear-gradient"/>
    <linearGradient id="linear-gradient-8" x1="392.92" y1="214.42" x2="456.35" y2="214.42" xlink:href="#linear-gradient"/>
    <linearGradient id="linear-gradient-9" x1="680.71" y1="263.56" x2="767.92" y2="263.56" xlink:href="#linear-gradient"/>
    <linearGradient id="linear-gradient-10" x1="319.57" y1="316.27" x2="403.36" y2="316.27" xlink:href="#linear-gradient"/>
    <linearGradient id="linear-gradient-11" x1="530.13" y1="128.62" x2="566.77" y2="128.62" xlink:href="#linear-gradient"/>
    <linearGradient id="linear-gradient-12" x1="540.09" y1="316.26" x2="593.39" y2="316.26" xlink:href="#linear-gradient"/>
    <linearGradient id="linear-gradient-13" x1="450.29" y1="299.35" x2="508.58" y2="299.35" xlink:href="#linear-gradient"/>
    <linearGradient id="linear-gradient-14" x1="352.54" y1="269.55" x2="433.31" y2="269.55" xlink:href="#linear-gradient"/>
    <linearGradient id="linear-gradient-15" x1="583.41" y1="160.54" x2="666.6" y2="160.54" xlink:href="#linear-gradient"/>
    <linearGradient id="linear-gradient-16" x1="664.25" y1="318.84" x2="742.78" y2="318.84" xlink:href="#linear-gradient"/>
    <linearGradient id="linear-gradient-17" x1="636.6" y1="217.29" x2="717.49" y2="217.29" xlink:href="#linear-gradient"/>
    <linearGradient id="linear-gradient-18" x1="529.64" y1="54.24" x2="580.46" y2="54.24" xlink:href="#linear-gradient"/>
    <linearGradient id="linear-gradient-19" x1="345.71" y1="201.46" x2="385.12" y2="201.46" xlink:href="#linear-gradient"/>
    <linearGradient id="linear-gradient-20" x1="372.23" y1="139.63" x2="409.74" y2="139.63" xlink:href="#linear-gradient"/>
    <linearGradient id="linear-gradient-21" x1="615.14" y1="272.55" x2="668.46" y2="272.55" xlink:href="#linear-gradient"/>
    <linearGradient id="linear-gradient-22" x1="1028.21" y1="441.47" x2="1152.23" y2="441.47" xlink:href="#linear-gradient"/>
    <linearGradient id="linear-gradient-23" x1="633.77" y1="506.21" x2="708.07" y2="506.21" xlink:href="#linear-gradient"/>
    <linearGradient id="linear-gradient-24" x1="1020.4" y1="511.27" x2="1117.85" y2="511.27" xlink:href="#linear-gradient"/>
    <linearGradient id="linear-gradient-25" x1="980.07" y1="559.49" x2="1035.72" y2="559.49" xlink:href="#linear-gradient"/>
    <linearGradient id="linear-gradient-26" x1="1009.48" y1="321.02" x2="1097.44" y2="321.02" xlink:href="#linear-gradient"/>
    <linearGradient id="linear-gradient-27" x1="962.83" y1="267.79" x2="1034.46" y2="267.79" xlink:href="#linear-gradient"/>
    <linearGradient id="linear-gradient-28" x1="757.47" y1="307.36" x2="798.13" y2="307.36" xlink:href="#linear-gradient"/>
    <linearGradient id="linear-gradient-29" x1="783.8" y1="495.59" x2="830.3" y2="495.59" xlink:href="#linear-gradient"/>
    <linearGradient id="linear-gradient-30" x1="507.22" y1="501.73" x2="556.33" y2="501.73" xlink:href="#linear-gradient"/>
    <linearGradient id="linear-gradient-31" x1="580.6" y1="521.38" x2="627.1" y2="521.38" xlink:href="#linear-gradient"/>
    <linearGradient id="linear-gradient-32" x1="570.49" y1="428.58" x2="616.99" y2="428.58" xlink:href="#linear-gradient"/>
    <linearGradient id="linear-gradient-33" x1="492.73" y1="397.33" x2="546.3" y2="397.33" xlink:href="#linear-gradient"/>
    <linearGradient id="linear-gradient-34" x1="426.05" y1="453.49" x2="485.04" y2="453.49" xlink:href="#linear-gradient"/>
    <linearGradient id="linear-gradient-35" x1="373.29" y1="397.33" x2="419.81" y2="397.33" xlink:href="#linear-gradient"/>
    <linearGradient id="linear-gradient-36" x1="872.42" y1="289.58" x2="930.25" y2="289.58" xlink:href="#linear-gradient"/>
    <linearGradient id="linear-gradient-37" x1="884.76" y1="577.67" x2="933.46" y2="577.67" xlink:href="#linear-gradient"/>
    <linearGradient id="linear-gradient-38" x1="944.03" y1="629.78" x2="997.04" y2="629.78" xlink:href="#linear-gradient"/>
    <linearGradient id="linear-gradient-39" x1="964.94" y1="750.66" x2="1017.94" y2="750.66" xlink:href="#linear-gradient"/>
    <linearGradient id="linear-gradient-40" x1="1124.36" y1="592.63" x2="1180.1" y2="592.63" xlink:href="#linear-gradient"/>
    <linearGradient id="linear-gradient-41" x1="1103.11" y1="706.52" x2="1170.61" y2="706.52" xlink:href="#linear-gradient"/>
    <linearGradient id="linear-gradient-42" x1="1076.58" y1="807.2" x2="1138.99" y2="807.2" xlink:href="#linear-gradient"/>
    <linearGradient id="linear-gradient-43" x1="1014.56" y1="823.79" x2="1067.69" y2="823.79" xlink:href="#linear-gradient"/>
    <linearGradient id="linear-gradient-44" x1="934.37" y1="820.96" x2="987.37" y2="820.96" xlink:href="#linear-gradient"/>
    <linearGradient id="linear-gradient-45" x1="1010.26" y1="939.04" x2="1071.15" y2="939.04" xlink:href="#linear-gradient"/>
    <linearGradient id="linear-gradient-46" x1="944.7" y1="969.18" x2="996.38" y2="969.18" xlink:href="#linear-gradient"/>
    <linearGradient id="linear-gradient-47" x1="908.45" y1="1054.1" x2="963.22" y2="1054.1" xlink:href="#linear-gradient"/>
    <linearGradient id="linear-gradient-48" x1="973.83" y1="1017.67" x2="1014.18" y2="1017.67" xlink:href="#linear-gradient"/>
    <linearGradient id="linear-gradient-49" x1="980.13" y1="884.82" x2="1016.44" y2="884.82" xlink:href="#linear-gradient"/>
    <linearGradient id="linear-gradient-50" x1="1042.61" y1="602.58" x2="1095.62" y2="602.58" xlink:href="#linear-gradient"/>
    <linearGradient id="linear-gradient-51" x1="1000.41" y1="685.93" x2="1062.44" y2="685.93" xlink:href="#linear-gradient"/>
    <linearGradient id="linear-gradient-52" x1="894.87" y1="694.52" x2="956.87" y2="694.52" xlink:href="#linear-gradient"/>
    <linearGradient id="linear-gradient-53" x1="773.46" y1="223" x2="822.87" y2="223" xlink:href="#linear-gradient"/>
    <linearGradient id="linear-gradient-54" x1="957.1" y1="367.47" x2="1040.2" y2="367.47" xlink:href="#linear-gradient"/>
    <linearGradient id="linear-gradient-55" x1="814.4" y1="419.01" x2="897.47" y2="419.01" xlink:href="#linear-gradient"/>
    <linearGradient id="linear-gradient-56" x1="787.77" y1="350.28" x2="891.76" y2="350.28" xlink:href="#linear-gradient"/>
    <linearGradient id="linear-gradient-57" x1="827.96" y1="244.96" x2="874.55" y2="244.96" xlink:href="#linear-gradient"/>
    <linearGradient id="linear-gradient-58" x1="888.29" y1="172.72" x2="943.83" y2="172.72" xlink:href="#linear-gradient"/>
    <linearGradient id="linear-gradient-59" x1="972.62" y1="460.28" x2="1019.75" y2="460.28" xlink:href="#linear-gradient"/>
    <linearGradient id="linear-gradient-60" x1="828.81" y1="567.12" x2="872.17" y2="567.12" xlink:href="#linear-gradient"/>
    <linearGradient id="linear-gradient-61" x1="751.86" y1="567.98" x2="792.8" y2="567.98" xlink:href="#linear-gradient"/>
    <linearGradient id="linear-gradient-62" x1="925.87" y1="523.19" x2="970.05" y2="523.19" xlink:href="#linear-gradient"/>
    <linearGradient id="linear-gradient-63" x1="1045.97" y1="373.22" x2="1143.01" y2="373.22" xlink:href="#linear-gradient"/>
    <linearGradient id="linear-gradient-64" x1="908.1" y1="433.43" x2="958.79" y2="433.43" xlink:href="#linear-gradient"/>
    <linearGradient id="linear-gradient-65" x1="1107.78" y1="510.99" x2="1154.72" y2="510.99" xlink:href="#linear-gradient"/>
    <linearGradient id="linear-gradient-66" x1="1065.89" y1="718.3" x2="1100.33" y2="718.3" xlink:href="#linear-gradient"/>
    <linearGradient id="linear-gradient-67" x1="790.93" y1="621.76" x2="837.85" y2="621.76" xlink:href="#linear-gradient"/>
    <linearGradient id="linear-gradient-68" x1="852.38" y1="642.15" x2="896.67" y2="642.15" xlink:href="#linear-gradient"/>
    <linearGradient id="linear-gradient-69" x1="893.86" y1="372.41" x2="943.83" y2="372.41" xlink:href="#linear-gradient"/>
    <linearGradient id="linear-gradient-70" x1="688.7" y1="402.71" x2="811.05" y2="402.71" xlink:href="#linear-gradient"/>
    <linearGradient id="linear-gradient-71" x1="727.75" y1="94.93" x2="853.22" y2="94.93" xlink:href="#linear-gradient"/>
    <linearGradient id="linear-gradient-72" x1="716.2" y1="497.69" x2="763.32" y2="497.69" xlink:href="#linear-gradient"/>
    <linearGradient id="linear-gradient-73" x1="638.98" y1="409.88" x2="685.89" y2="409.88" xlink:href="#linear-gradient"/>
    <linearGradient id="linear-gradient-74" x1="855.9" y1="133.16" x2="909.59" y2="133.16" xlink:href="#linear-gradient"/>
    <linearGradient id="linear-gradient-75" x1="940.23" y1="213.46" x2="1001.11" y2="213.46" xlink:href="#linear-gradient"/>
    <linearGradient id="linear-gradient-76" x1="787.16" y1="165.5" x2="858.59" y2="165.5" xlink:href="#linear-gradient"/>
    <linearGradient id="linear-gradient-77" x1="666.76" y1="42.84" x2="727.21" y2="42.84" xlink:href="#linear-gradient"/>
    <linearGradient id="linear-gradient-78" x1="858.5" y1="488.01" x2="903.02" y2="488.01" xlink:href="#linear-gradient"/>
    <linearGradient id="linear-gradient-79" x1="1061.27" y1="876.59" x2="1101.21" y2="876.59" xlink:href="#linear-gradient"/>
    <linearGradient id="linear-gradient-80" x1="305.79" y1="571.3" x2="1196.12" y2="571.3" xlink:href="#linear-gradient"/>
    <linearGradient id="Gold_02" data-name="Gold 02" x1="445.18" y1="-513.34" x2="445.18" y2="1423.63" gradientUnits="userSpaceOnUse">
      <stop offset="0" stop-color="#b97a2a"/>
      <stop offset=".1" stop-color="#c68d3a"/>
      <stop offset=".37" stop-color="#e8bd61"/>
      <stop offset=".5" stop-color="#f5d071"/>
      <stop offset=".63" stop-color="#e8bd61"/>
      <stop offset=".9" stop-color="#c68d3a"/>
      <stop offset="1" stop-color="#b97a2a"/>
    </linearGradient>
    <linearGradient id="Gold_02-2" data-name="Gold 02" x1="526.93" y1="1120.67" x2="619.25" y2="1120.67" xlink:href="#Gold_02"/>
    <linearGradient id="Gold_02-3" data-name="Gold 02" x1="469.78" y1="1096.44" x2="547.1" y2="1096.44" xlink:href="#Gold_02"/>
    <linearGradient id="Gold_02-4" data-name="Gold 02" x1="423.35" y1="1031.34" x2="523.22" y2="1031.34" xlink:href="#Gold_02"/>
    <linearGradient id="Gold_02-5" data-name="Gold 02" x1="668.59" y1="1114.44" x2="720.79" y2="1114.44" xlink:href="#Gold_02"/>
    <linearGradient id="Gold_02-6" data-name="Gold 02" x1="706.33" y1="1065.75" x2="796.41" y2="1065.75" xlink:href="#Gold_02"/>
    <linearGradient id="Gold_02-7" data-name="Gold 02" x1="723.43" y1="846.86" x2="778.45" y2="846.86" xlink:href="#Gold_02"/>
    <linearGradient id="Gold_02-8" data-name="Gold 02" x1="519.47" y1="845.67" x2="605.26" y2="845.67" xlink:href="#Gold_02"/>
    <linearGradient id="Gold_02-9" data-name="Gold 02" x1="739.79" y1="982.77" x2="803.21" y2="982.77" xlink:href="#Gold_02"/>
    <linearGradient id="Gold_02-10" data-name="Gold 02" x1="428.22" y1="933.62" x2="515.41" y2="933.62" xlink:href="#Gold_02"/>
    <linearGradient id="Gold_02-11" data-name="Gold 02" x1="792.77" y1="880.91" x2="876.55" y2="880.91" xlink:href="#Gold_02"/>
    <linearGradient id="Gold_02-12" data-name="Gold 02" x1="629.39" y1="1068.57" x2="666" y2="1068.57" xlink:href="#Gold_02"/>
    <linearGradient id="Gold_02-13" data-name="Gold 02" x1="602.72" y1="880.92" x2="656.03" y2="880.92" xlink:href="#Gold_02"/>
    <linearGradient id="Gold_02-14" data-name="Gold 02" x1="687.57" y1="897.82" x2="745.84" y2="897.82" xlink:href="#Gold_02"/>
    <linearGradient id="Gold_02-15" data-name="Gold 02" x1="762.82" y1="927.63" x2="843.62" y2="927.63" xlink:href="#Gold_02"/>
    <linearGradient id="Gold_02-16" data-name="Gold 02" x1="529.52" y1="1036.64" x2="612.71" y2="1036.64" xlink:href="#Gold_02"/>
    <linearGradient id="Gold_02-17" data-name="Gold 02" x1="453.35" y1="878.35" x2="531.9" y2="878.35" xlink:href="#Gold_02"/>
    <linearGradient id="Gold_02-18" data-name="Gold 02" x1="478.62" y1="979.9" x2="559.52" y2="979.9" xlink:href="#Gold_02"/>
    <linearGradient id="Gold_02-19" data-name="Gold 02" x1="615.66" y1="1142.95" x2="666.5" y2="1142.95" xlink:href="#Gold_02"/>
    <linearGradient id="Gold_02-20" data-name="Gold 02" x1="811.02" y1="995.72" x2="850.42" y2="995.72" xlink:href="#Gold_02"/>
    <linearGradient id="Gold_02-21" data-name="Gold 02" x1="786.4" y1="1057.55" x2="823.91" y2="1057.55" xlink:href="#Gold_02"/>
    <linearGradient id="Gold_02-22" data-name="Gold 02" x1="527.67" y1="924.63" x2="580.98" y2="924.63" xlink:href="#Gold_02"/>
    <linearGradient id="Gold_02-23" data-name="Gold 02" x1="43.9" y1="755.71" x2="167.93" y2="755.71" xlink:href="#Gold_02"/>
    <linearGradient id="Gold_02-24" data-name="Gold 02" x1="488.05" y1="690.97" x2="562.36" y2="690.97" xlink:href="#Gold_02"/>
    <linearGradient id="Gold_02-25" data-name="Gold 02" x1="78.29" y1="685.91" x2="175.75" y2="685.91" xlink:href="#Gold_02"/>
    <linearGradient id="Gold_02-26" data-name="Gold 02" x1="160.42" y1="637.69" x2="216.07" y2="637.69" xlink:href="#Gold_02"/>
    <linearGradient id="Gold_02-27" data-name="Gold 02" x1="98.69" y1="876.16" x2="186.67" y2="876.16" xlink:href="#Gold_02"/>
    <linearGradient id="Gold_02-28" data-name="Gold 02" x1="161.67" y1="929.39" x2="233.29" y2="929.39" xlink:href="#Gold_02"/>
    <linearGradient id="Gold_02-29" data-name="Gold 02" x1="397.99" y1="889.82" x2="438.68" y2="889.82" xlink:href="#Gold_02"/>
    <linearGradient id="Gold_02-30" data-name="Gold 02" x1="365.81" y1="701.6" x2="412.32" y2="701.6" xlink:href="#Gold_02"/>
    <linearGradient id="Gold_02-31" data-name="Gold 02" x1="639.79" y1="695.45" x2="688.91" y2="695.45" xlink:href="#Gold_02"/>
    <linearGradient id="Gold_02-32" data-name="Gold 02" x1="569.03" y1="675.81" x2="615.54" y2="675.81" xlink:href="#Gold_02"/>
    <linearGradient id="Gold_02-33" data-name="Gold 02" x1="579.15" y1="768.6" x2="625.63" y2="768.6" xlink:href="#Gold_02"/>
    <linearGradient id="Gold_02-34" data-name="Gold 02" x1="649.85" y1="799.85" x2="703.39" y2="799.85" xlink:href="#Gold_02"/>
    <linearGradient id="Gold_02-35" data-name="Gold 02" x1="711.1" y1="743.69" x2="770.08" y2="743.69" xlink:href="#Gold_02"/>
    <linearGradient id="Gold_02-36" data-name="Gold 02" x1="776.33" y1="799.85" x2="822.84" y2="799.85" xlink:href="#Gold_02"/>
    <linearGradient id="Gold_02-37" data-name="Gold 02" x1="265.87" y1="907.6" x2="323.72" y2="907.6" xlink:href="#Gold_02"/>
    <linearGradient id="Gold_02-38" data-name="Gold 02" x1="262.67" y1="619.51" x2="311.37" y2="619.51" xlink:href="#Gold_02"/>
    <linearGradient id="Gold_02-39" data-name="Gold 02" x1="199.09" y1="567.4" x2="252.09" y2="567.4" xlink:href="#Gold_02"/>
    <linearGradient id="Gold_02-40" data-name="Gold 02" x1="178.19" y1="446.53" x2="231.19" y2="446.53" xlink:href="#Gold_02"/>
    <linearGradient id="Gold_02-41" data-name="Gold 02" x1="16.04" y1="604.55" x2="71.77" y2="604.55" xlink:href="#Gold_02"/>
    <linearGradient id="Gold_02-42" data-name="Gold 02" x1="25.53" y1="490.67" x2="93.02" y2="490.67" xlink:href="#Gold_02"/>
    <linearGradient id="Gold_02-43" data-name="Gold 02" x1="57.12" y1="389.99" x2="119.56" y2="389.99" xlink:href="#Gold_02"/>
    <linearGradient id="Gold_02-44" data-name="Gold 02" x1="128.45" y1="373.39" x2="181.59" y2="373.39" xlink:href="#Gold_02"/>
    <linearGradient id="Gold_02-45" data-name="Gold 02" x1="208.77" y1="376.21" x2="261.77" y2="376.21" xlink:href="#Gold_02"/>
    <linearGradient id="Gold_02-46" data-name="Gold 02" x1="124.98" y1="258.14" x2="185.86" y2="258.14" xlink:href="#Gold_02"/>
    <linearGradient id="Gold_02-47" data-name="Gold 02" x1="199.74" y1="227.99" x2="251.44" y2="227.99" xlink:href="#Gold_02"/>
    <linearGradient id="Gold_02-48" data-name="Gold 02" x1="232.92" y1="143.09" x2="287.68" y2="143.09" xlink:href="#Gold_02"/>
    <linearGradient id="Gold_02-49" data-name="Gold 02" x1="181.94" y1="179.51" x2="222.31" y2="179.51" xlink:href="#Gold_02"/>
    <linearGradient id="Gold_02-50" data-name="Gold 02" x1="179.68" y1="312.36" x2="215.99" y2="312.36" xlink:href="#Gold_02"/>
    <linearGradient id="Gold_02-51" data-name="Gold 02" x1="100.5" y1="594.61" x2="153.52" y2="594.61" xlink:href="#Gold_02"/>
    <linearGradient id="Gold_02-52" data-name="Gold 02" x1="133.72" y1="511.26" x2="195.72" y2="511.26" xlink:href="#Gold_02"/>
    <linearGradient id="Gold_02-53" data-name="Gold 02" x1="239.27" y1="502.66" x2="301.26" y2="502.66" xlink:href="#Gold_02"/>
    <linearGradient id="Gold_02-54" data-name="Gold 02" x1="373.25" y1="974.18" x2="422.67" y2="974.18" xlink:href="#Gold_02"/>
    <linearGradient id="Gold_02-55" data-name="Gold 02" x1="155.91" y1="829.71" x2="239.03" y2="829.71" xlink:href="#Gold_02"/>
    <linearGradient id="Gold_02-56" data-name="Gold 02" x1="298.63" y1="778.17" x2="381.73" y2="778.17" xlink:href="#Gold_02"/>
    <linearGradient id="Gold_02-57" data-name="Gold 02" x1="304.37" y1="846.9" x2="408.36" y2="846.9" xlink:href="#Gold_02"/>
    <linearGradient id="Gold_02-58" data-name="Gold 02" x1="321.58" y1="952.21" x2="368.17" y2="952.21" xlink:href="#Gold_02"/>
    <linearGradient id="Gold_02-59" data-name="Gold 02" x1="252.31" y1="1024.46" x2="307.84" y2="1024.46" xlink:href="#Gold_02"/>
    <linearGradient id="Gold_02-60" data-name="Gold 02" x1="176.38" y1="736.9" x2="223.51" y2="736.9" xlink:href="#Gold_02"/>
    <linearGradient id="Gold_02-61" data-name="Gold 02" x1="323.98" y1="630.06" x2="367.33" y2="630.06" xlink:href="#Gold_02"/>
    <linearGradient id="Gold_02-62" data-name="Gold 02" x1="403.32" y1="629.2" x2="444.26" y2="629.2" xlink:href="#Gold_02"/>
    <linearGradient id="Gold_02-63" data-name="Gold 02" x1="226.08" y1="673.99" x2="270.26" y2="673.99" xlink:href="#Gold_02"/>
    <linearGradient id="Gold_02-64" data-name="Gold 02" x1="53.13" y1="823.97" x2="150.17" y2="823.97" xlink:href="#Gold_02"/>
    <linearGradient id="Gold_02-65" data-name="Gold 02" x1="237.31" y1="763.76" x2="288.04" y2="763.76" xlink:href="#Gold_02"/>
    <linearGradient id="Gold_02-66" data-name="Gold 02" x1="41.42" y1="686.19" x2="88.33" y2="686.19" xlink:href="#Gold_02"/>
    <linearGradient id="Gold_02-67" data-name="Gold 02" x1="95.79" y1="478.88" x2="130.24" y2="478.88" xlink:href="#Gold_02"/>
    <linearGradient id="Gold_02-68" data-name="Gold 02" x1="358.28" y1="575.43" x2="405.19" y2="575.43" xlink:href="#Gold_02"/>
    <linearGradient id="Gold_02-69" data-name="Gold 02" x1="299.46" y1="555.03" x2="343.74" y2="555.03" xlink:href="#Gold_02"/>
    <linearGradient id="Gold_02-70" data-name="Gold 02" x1="252.31" y1="824.77" x2="302.26" y2="824.77" xlink:href="#Gold_02"/>
    <linearGradient id="Gold_02-71" data-name="Gold 02" x1="385.1" y1="794.47" x2="507.43" y2="794.47" xlink:href="#Gold_02"/>
    <linearGradient id="Gold_02-72" data-name="Gold 02" x1="342.91" y1="1102.25" x2="468.34" y2="1102.25" xlink:href="#Gold_02"/>
    <linearGradient id="Gold_02-73" data-name="Gold 02" x1="432.8" y1="699.5" x2="479.94" y2="699.5" xlink:href="#Gold_02"/>
    <linearGradient id="Gold_02-74" data-name="Gold 02" x1="510.24" y1="787.31" x2="557.16" y2="787.31" xlink:href="#Gold_02"/>
    <linearGradient id="Gold_02-75" data-name="Gold 02" x1="286.55" y1="1064.01" x2="340.25" y2="1064.01" xlink:href="#Gold_02"/>
    <linearGradient id="Gold_02-76" data-name="Gold 02" x1="195.01" y1="983.72" x2="255.9" y2="983.72" xlink:href="#Gold_02"/>
    <linearGradient id="Gold_02-77" data-name="Gold 02" x1="337.55" y1="1031.68" x2="408.97" y2="1031.68" xlink:href="#Gold_02"/>
    <linearGradient id="Gold_02-78" data-name="Gold 02" x1="468.93" y1="1154.34" x2="529.37" y2="1154.34" xlink:href="#Gold_02"/>
    <linearGradient id="Gold_02-79" data-name="Gold 02" x1="293.11" y1="709.17" x2="337.63" y2="709.17" xlink:href="#Gold_02"/>
    <linearGradient id="Gold_02-80" data-name="Gold 02" x1="94.94" y1="320.61" x2="134.85" y2="320.61" xlink:href="#Gold_02"/>
  </defs>
  <g>
    <g>
      <g>
        <path class="cls-1" d="m669.2,21.45c-2.59,5.85-5.71,11.21-7.39,16.97-2.62,9.17-5.05,18.51-6.2,27.94-3.59,29.91-20.79,48.5-47.73,59.41-4.89,1.97-9.88,3.64-14.86,5.4-.77.28-1.61.29-3.2.57-.6-27.38,10.85-50.15,24.33-72.28-19.8,17.44-26.91,41.53-33.93,65.74-3.01-9.18-3.79-18.28-3.12-27.52,2.03-28.1,17.32-47.29,41.12-60.6,15.39-8.61,32.21-12.94,49.47-15.79.38-.08.81.07,1.51.15Z"/>
        <path class="cls-146" d="m658.6,143.71c-.03-11.52,2.42-21.33,6.91-30.53,4.37-8.99,9.55-17.59,14.78-27.1-5.71,4.52-9.96,9.53-13.33,15.18-3.37,5.66-6.35,11.61-8.95,17.7-2.6,6.09-4.51,12.52-7,19.59-2.15-8.45-2.5-16.19-1.37-23.99,3.4-23.74,17.91-38.55,38.98-47.88,11.63-5.14,23.9-7.54,36.45-8.91.31-.03.66.13,1.28.26-.37.77-.58,1.52-1,2.13-5.26,7.4-7.86,15.88-9.84,24.61-2.25,9.78-3.9,19.75-8.9,28.67-6.51,11.55-16.77,18.55-28.62,23.46-6.06,2.51-12.41,4.38-19.39,6.81Z"/>
        <path class="cls-145" d="m772.8,155.45c-5.66,3.44-11.62,6.47-16.92,10.41-6.47,4.83-12.26,10.59-18.56,15.66-12.31,9.89-26.46,11.64-41.41,8.44-6.79-1.47-13.45-3.74-20.77-5.79,12.44-16.59,29.36-24.62,47.4-30.95-.07-.32-.1-.64-.19-.93-2.45.31-4.95.44-7.37.98-15.13,3.38-27.66,11.77-39.76,20.93-.56.43-1.15.87-2.32,1.71.24-1.32.21-2.02.5-2.56,7.84-15.55,19.21-26.98,36.63-31.34,9.38-2.36,18.79-2.16,28.2-.33,11.72,2.31,22.56,6.89,32.93,12.67.7.41,1.37.9,1.64,1.09Z"/>
        <path class="cls-147" d="m504.94,77.25c3.54,17.46,2.99,34.56-3.11,51.38-17.58-10.56-27.54-25.26-26.4-44.23.47-7.54,1.41-15.06,2.25-22.57.86-7.58.83-15.08-.95-22.55-.12-.49-.13-.99-.33-2.41,4.63,2.23,8.73,4.05,12.73,6.15,9.89,5.14,18.95,11.38,26.4,19.83,14.91,16.95,16,38.09,2.88,56.54-1.28,1.78-2.66,3.52-4.37,5.18,1.06-8.27,1.29-16.39-.29-24.56-1.51-8.08-4.51-15.56-8.8-22.75Z"/>
        <path class="cls-150" d="m399.73,102.04c20.14-4.6,39.52-7.71,58.92-.68,17.15,6.2,27.32,18.47,30.18,36.54.77,4.95,1.08,9.99.95,15.27-9.34-16.15-22.18-27.95-39.09-35.15-.42.41-.82.81-1.19,1.21,1.12.62,2.42,1.08,3.36,1.9,12.89,11.31,22.32,24.97,27.94,41.21.65,1.77,1.11,3.12-1.54,3.2-14.1.36-27.92-.91-39.25-10.45-4.48-3.79-8.43-8.47-11.77-13.33-5.2-7.59-9.42-15.9-14.58-23.54-3.26-4.78-7.53-8.9-11.35-13.29-.72-.83-1.45-1.67-2.58-2.92Z"/>
        <path class="cls-148" d="m417.68,336.65c4.08-1.03,8.08-2.24,12.22-3.07,7.82-1.6,15.72-1.85,23.36.7,9.93,3.3,16.24,10.16,18.52,20.45.41,1.89.57,3.82.92,6.08-3.69-3.86-6.82-7.58-10.4-10.83-3.57-3.28-7.85-5.58-12.61-6.8,5.53,3.05,10.79,6.52,14.64,11.59,2.35,3.09,3.99,6.72,5.88,10.16.54.97.59,1.89-.89,2.19-8.25,1.73-16.34,1.94-23.98-2.51-4.47-2.62-7.85-6.35-11.08-10.28-4.09-4.99-7.76-10.35-12.98-14.33-1.17-.88-2.38-1.69-3.55-2.54,0-.26-.02-.54-.05-.81Z"/>
        <path class="cls-149" d="m676.66,375.49c-12.24-3.53-24.14-1.7-36.04-1.51-6.77.08-13.71.1-20.28-1.19-11.43-2.24-19.35-9.86-25.74-19.19-1.09-1.59-2.03-3.24-3.1-4.84-1.13-1.66-.72-2.52,1.12-3.36,9.78-4.28,19.87-4.6,30.14-2.86,4.98.85,9.84,2.25,14.85,3.07-12.85-7.46-26.71-9.3-41.92-6.9.73-1.12.92-1.63,1.29-1.89,9.29-6.73,19.46-10.39,31.14-8.96,7.15.88,13.45,3.72,19.39,7.69,11.97,7.97,23.79,24.81,29.16,39.94Z"/>
        <path class="cls-143" d="m449.16,240.72c-12.92,1.55-27.73-2.36-35.42-15.79-3.66-6.36-6.59-13.13-9.75-19.73-2.59-5.35-5.51-10.46-9.81-14.65-.37-.36-.59-.84-1.26-1.84,3.53-.28,6.63-.59,9.74-.75,13.29-.68,26.22.65,37.72,8.07,11.65,7.56,16.44,18.7,15.95,32.34-.04.62-.16,1.26-.28,1.88-.03.15-.23.25-.86.82-5.34-12.69-13.92-22.3-26.3-28.41,10.22,10.86,17.33,23.33,20.28,38.07Z"/>
        <path class="cls-144" d="m767.92,267.59c-5.58,1.73-10.72,3-15.58,4.98-7.93,3.25-15.65,7.04-23.48,10.52-15.07,6.72-29.19,4.39-42.48-4.77-7.01-4.83-8.08-3.92.03-9.5,10.03-6.87,21.48-10.02,33.38-11.84.79-.15,1.64-.24,2.47-.4.7-.16,1.4-.37,2.13-.85-7.29-1.24-14.69-1.49-21.89-.04-7.11,1.43-14.03,3.82-21.31,5.89.18-.63.24-1.43.61-2.06,7.76-13.95,23.55-21.26,39.44-18.89,14.78,2.21,26.87,9.5,38.17,18.57,2.32,1.87,4.54,3.89,6.71,5.9.72.65,1.18,1.59,1.81,2.5Z"/>
        <path class="cls-19" d="m319.57,333.34c7.47-13.16,16.05-24.89,28.77-33.02,7.55-4.79,15.67-7.51,24.74-7.05,10.84.53,19.6,5.41,27.02,13.39-14.49-3.49-28.56-3.01-42.05,3.74,2.78-.28,5.58-.79,8.36-.82,12.32-.13,24.11,2.21,35.42,7.12,1.86.85,1.87,1.64.82,3.09-6.18,8.45-13.42,15.51-23.81,18.35-6.78,1.85-13.71,1.25-20.6,0-9.5-1.7-19.02-3.33-28.58-4.73-3.11-.44-6.33-.07-10.08-.07Z"/>
        <path class="cls-16" d="m566.77,102.21c-3.94,8.99-3.11,18.18-3.83,27.18-.83,10.6-6.36,18.12-15.51,23.18-1.52.86-3.08,1.59-4.83,2.46-2.43-10.97-.65-21.21,2.89-31.34-3.37,3.69-5.91,7.89-7.3,12.55-1.36,4.58-1.99,9.37-3.02,14.25-.21-.26-.59-.59-.83-1.03-7.85-13.78-4.54-28.28,8.48-37.46,6.73-4.73,14.31-7.58,22.21-9.64.4-.11.83-.08,1.74-.16Z"/>
        <path class="cls-18" d="m593.39,277.83c-5.71,13.06-4.48,26.45-5.52,39.55-1.27,15.42-9.26,26.39-22.61,33.76-2.23,1.24-4.49,2.28-7,3.55-3.56-15.94-.95-30.84,4.19-45.6-4.91,5.37-8.6,11.48-10.63,18.27-2,6.66-2.92,13.63-4.38,20.73-.32-.38-.89-.87-1.24-1.46-11.4-20.08-6.61-41.22,12.37-54.56,9.81-6.89,20.83-11.02,32.32-14.01.58-.16,1.21-.13,2.5-.23Z"/>
        <path class="cls-17" d="m453.02,263.56c9.56,10.61,22.26,15.01,33.77,21.37,13.53,7.48,20.21,19.32,21.43,34.5.21,2.51.22,5.03.37,7.85-16.02-3.32-28.53-11.87-39.83-22.65,2.85,6.72,6.91,12.59,12.25,17.22,5.25,4.56,11.22,8.3,17.09,12.55-.46.13-1.16.45-1.87.51-22.98,2.13-40.24-10.96-44.58-33.75-2.23-11.75-1.45-23.51.55-35.22.11-.59.4-1.16.83-2.39Z"/>
        <path class="cls-15" d="m352.54,259.82c7.04-3.32,13.94-6.96,21.16-9.83,8.06-3.17,16.6-4.62,25.35-3.95,16.9,1.28,29.98,12.8,34.27,29.94-1.99-1.5-3.4-2.42-4.62-3.52-8.25-7.4-18.06-11.4-28.8-13.41-1.12-.21-2.26-.16-2.94-.2,5.72,3.5,12.08,6.7,17.58,11,5.33,4.14,9.81,9.4,14.57,14.22,1.71,1.74,1.96,3.32-.94,4.14-5.39,1.56-10.65,3.83-16.12,4.66-10.67,1.6-19.82-2.44-27.92-9.21-5.43-4.57-10.69-9.45-16.38-13.71-3.84-2.9-8.32-4.99-12.5-7.44-.86-.51-1.73-1.05-2.55-1.57-.05-.36-.1-.75-.15-1.12Z"/>
        <path class="cls-20" d="m666.6,159.85c-11.92,2.24-21.2,9.05-30.93,14.83-8.36,4.95-17.03,8.89-27.07,8.13-9.05-.67-17-4.34-25.04-9.58,11.39-12.47,26.37-17.14,41.91-20.88-2.65-1.61-14.3-1.21-21.45,1.08-6.91,2.21-13.71,4.88-20.62,7.38.08-.32.09-1.04.35-1.63,7.28-14.87,21.41-22.41,37.97-20.78,16.94,1.66,30.73,9.96,43.75,20.07.32.27.53.65,1.12,1.38Z"/>
        <path class="cls-23" d="m668.89,307.88c.65-.71,1.36-1.69,2.29-2.42,13.59-10.69,30.22-10.72,45.52.08,11.53,8.11,19.47,19.25,26.04,31.48.09.16,0,.42,0,.85-.51.08-1.15.34-1.64.21-8.34-1.92-16.53-.05-24.77.83-7.47.81-15.11,1.72-22.56,1.17-10.47-.77-18.34-6.9-24.79-14.88-1.56-1.95-2.99-4.01-4.73-6.34,7.34-3.33,14.46-4.93,21.84-4.78,7.24.13,14.44.8,22.4,1.29-6.47-3.42-12.76-5.51-19.42-6.2-6.65-.69-13.28-.86-20.19-1.28Z"/>
        <path class="cls-22" d="m678.23,210.92c-13.51-3.13-26.76-1.8-39.94,2.94,2.51-5.13,6.23-8.98,10.72-12.02,10.46-7.12,21.83-7.27,33.36-3.4,13.65,4.58,24.45,13.53,34.25,23.83.4.42.59,1.06.86,1.64-4.25.93-8.52,1.38-12.48,2.77-8.31,2.9-16.39,6.44-24.68,9.48-13.94,5.07-26.59,2.19-38.16-6.62-1.37-1.03-2.64-2.14-3.98-3.2-.34-.27-.67-.51-1.59-1.16,12.49-9.86,26.74-12.74,41.63-14.26Z"/>
        <path class="cls-27" d="m578.62,8.45c-.49,3.14-1.45,6.04-1.32,8.88.37,7.8.45,15.67,1.97,23.29,3.84,19.11-1.53,35.03-16.63,48.02-4.41,3.79-9.11,7.31-14.21,11.38-6.67-18.32-4.22-35.78-.59-53.62-1.12,2.25-2.45,4.45-3.39,6.76-5.25,12.94-5.03,26.45-4.35,40,.04.98.06,1.96.04,2.93,0,.18-.28.37-.77.84-4.09-5.93-6.81-12.24-8.38-18.96-4.1-17.47,1.39-32.55,13.22-45.86,8.96-10.1,20.36-17.24,32.57-23.36.4-.21.95-.17,1.84-.29Z"/>
        <path class="cls-21" d="m368.44,164.35c1.83,13.54,9.07,23.59,13.74,34.74,5.96,14.18,2.41,26.73-6.46,38.4-.28.36-.8.58-1.5,1.07-9.42-10.05-12.54-22.57-15.28-35.36-1.98,11.91.38,23.2,5.86,35.23-2.1-.9-3.18-1.21-4.12-1.78-11.81-7.63-17.26-21.19-14.07-34.99,2.71-11.73,8.39-21.91,16.28-30.86,1.58-1.81,3.15-3.63,5.55-6.44Z"/>
        <path class="cls-26" d="m393.87,104.32c1.71,12.87,8.61,22.44,13.09,33.07,5.64,13.5,2.26,25.43-6.18,36.54-.25.35-.73.55-1.41,1.02-8.99-9.57-11.93-21.49-14.55-33.66-1.88,11.35.36,22.07,5.56,33.52-2-.84-3.01-1.13-3.92-1.69-11.22-7.26-16.41-20.15-13.39-33.31,2.58-11.14,7.98-20.82,15.5-29.36,1.53-1.72,2.99-3.47,5.29-6.12Z"/>
        <path class="cls-28" d="m638.72,266.6c-8.82.66-16.12,4.99-23.58,10.6.68-5.92,3.3-9.94,6.84-13.41,4.54-4.41,10.13-6.4,16.41-6.75,10.67-.58,20.35,2.7,29.59,7.59.35.18.59.54.42.35-6.82,5.61-13.53,11.2-20.34,16.71-9.15,7.43-20.66,8.49-31.26,2.81,5.38-8.37,13.31-13.43,21.91-17.91Z"/>
      </g>
      <path class="cls-25" d="m1152.22,481.57c-6.28-1.61-12.18-3.83-18.26-4.56-9.64-1.13-19.43-2.03-29.09-1.61-30.66,1.35-52.21-12.83-67.67-38.09-2.78-4.58-5.3-9.33-7.89-14.04-.4-.72-.58-1.56-1.1-3.11,27.41-5.14,52.19,2.57,76.7,12.44-20.84-17.01-46.24-20.13-71.73-23.16,8.7-4.56,17.75-6.82,27.15-7.72,28.57-2.65,50.41,9.56,67.74,31.24,11.21,14.01,18.34,30.21,24.07,47.09.15.38.08.83.08,1.51Z"/>
      <path class="cls-24" d="m696.25,571.7c-3.88-5.23-7.04-10.7-11.31-15.06-6.79-6.94-13.84-13.81-21.64-19.55-24.64-18.24-32.48-42.82-28.58-72.18.7-5.33,1.75-10.59,2.68-15.89.15-.8.56-1.56,1.1-3.11,24.55,13.24,38.94,34.82,51.78,57.92-5.49-26.33-23.25-44.72-41.17-63.13,9.65,1.93,18.09,5.86,25.94,11.07,23.87,15.93,33.19,39.15,33,66.92-.12,17.95-4.77,35.02-10.91,51.76-.13.38-.49.67-.91,1.24Z"/>
      <path class="cls-30" d="m1020.4,491.3c11.57-1.97,21.84-1.14,31.81,1.84,9.78,2.93,19.29,6.69,29.72,10.38-5.51-5-11.26-8.44-17.5-10.88-6.26-2.46-12.74-4.45-19.27-6.04-6.54-1.61-13.33-2.47-20.84-3.79,8.11-3.58,15.86-5.19,23.87-5.36,24.45-.53,41.72,11.57,54.6,31.19,7.09,10.83,11.54,22.8,15.04,35.16.05.3-.03.67-.06,1.32-.84-.23-1.64-.33-2.3-.65-8.35-4.05-17.28-5.24-26.39-5.79-10.2-.62-20.47-.62-30.3-4.18-12.67-4.61-21.42-13.76-28.32-24.85-3.53-5.69-6.48-11.74-10.07-18.34Z"/>
      <path class="cls-11" d="m1027.59,608c-4.38-5.13-8.39-10.6-13.26-15.27-5.94-5.71-12.67-10.56-18.84-16.06-11.97-10.71-16.08-24.65-15.33-40.21.32-7.08,1.51-14.12,2.35-21.82,18.73,9.74,29.63,25.43,39,42.5.3-.11.6-.21.88-.33-.73-2.44-1.25-4.95-2.22-7.28-5.9-14.64-16.42-25.82-27.65-36.46-.53-.51-1.05-1.03-2.09-2.06,1.34.02,2.08-.12,2.63.08,16.94,5.28,30.32,14.82,37.59,31.58,3.9,9.03,5.31,18.56,5.03,28.29-.38,12.13-3.2,23.8-7.27,35.19-.29.78-.66,1.53-.83,1.85Z"/>
      <path class="cls-29" d="m1061.62,325.82c-16.96,6.47-34.22,8.75-52.14,5.39,7.69-19.42,20.8-31.86,40.05-33.86,7.69-.8,15.37-1.1,23.07-1.5,7.75-.39,15.28-1.7,22.5-4.72.47-.19.99-.29,2.35-.72-1.46,5.01-2.61,9.46-4.04,13.8-3.53,10.77-8.3,20.95-15.55,29.83-14.53,17.83-35.6,22.44-56.32,12.3-2.02-.99-3.99-2.08-5.94-3.52,8.48-.34,16.67-1.46,24.62-4.37,7.89-2.89,14.88-7.12,21.4-12.63Z"/>
      <path class="cls-31" d="m1030.97,223c3.82,20.67,6.12,40.53-1.89,59.95-7.08,17.18-20.02,26.98-38.51,29.11-5.11.58-10.2.67-15.6.29,16.84-8.78,29.42-21.33,37.5-38.22-.39-.42-.78-.86-1.18-1.28-.69,1.13-1.22,2.45-2.1,3.37-12.08,12.62-26.4,21.61-43.18,26.64-1.81.54-3.22.96-3.18-1.72.26-14.39,2.16-28.38,12.35-39.49,4.08-4.4,9.01-8.21,14.1-11.39,7.96-4.97,16.58-8.88,24.6-13.81,4.99-3.09,9.36-7.27,14.01-10.96.89-.7,1.75-1.43,3.07-2.47Z"/>
      <path class="cls-10" d="m787.67,271.9c2.04,4.68,4.32,9.29,6.1,14.08,3.5,9.06,5.35,18.5,3.82,28.2-2,12.57-8.96,21.5-20.89,26.32-2.18.88-4.51,1.47-7.16,2.32,3.95-5.19,7.77-9.71,10.97-14.66,3.25-4.95,5.12-10.56,5.65-16.53-2.53,7.25-5.68,14.29-10.98,19.91-3.25,3.43-7.31,6.13-11.06,9.09-1.06.85-2.16,1.09-2.83-.63-3.69-9.6-5.55-19.27-1.72-29.32,2.24-5.89,6.05-10.73,10.13-15.37,5.2-5.9,10.89-11.39,14.65-18.44.82-1.56,1.55-3.18,2.35-4.78.28-.07.63-.14.95-.21Z"/>
      <path class="cls-9" d="m790.5,541.05c1.5-12.87-2.3-24.56-4.45-36.47-1.25-6.79-2.41-13.76-2.23-20.58.38-11.83,6.7-21.08,15.04-29.06,1.4-1.37,2.91-2.59,4.33-3.92,1.48-1.4,2.45-1.14,3.56.58,5.94,9.08,7.93,19.19,7.89,29.81-.02,5.14-.62,10.27-.6,15.42,5.35-14.13,4.89-28.37-.03-43.27,1.23.57,1.76.67,2.07.99,8.34,8.21,13.71,17.81,14.18,29.78.33,7.35-1.49,14.15-4.47,20.76-6.04,13.36-20.99,28.05-35.3,35.96Z"/>
      <path class="cls-13" d="m514.28,549.77c1.58-13.61-2.44-25.94-4.72-38.53-1.3-7.17-2.54-14.53-2.32-21.75.37-12.51,7.07-22.28,15.86-30.71,1.47-1.42,3.08-2.72,4.6-4.14,1.55-1.48,2.55-1.22,3.75.61,6.26,9.61,8.4,20.3,8.33,31.49-.02,5.43-.67,10.85-.66,16.31,5.69-14.95,5.22-30-.03-45.74,1.33.59,1.9.69,2.22,1.03,8.79,8.69,14.47,18.84,14.98,31.49.33,7.74-1.57,14.96-4.74,21.92-6.37,14.13-22.13,29.65-37.26,38Z"/>
      <path class="cls-8" d="m587.27,566.84c1.51-12.87-2.28-24.55-4.46-36.45-1.22-6.8-2.39-13.75-2.18-20.59.34-11.84,6.7-21.07,15.01-29.06,1.42-1.35,2.92-2.57,4.32-3.92,1.48-1.4,2.45-1.15,3.58.59,5.94,9.08,7.94,19.2,7.89,29.8-.02,5.14-.64,10.28-.63,15.42,5.37-14.13,4.91-28.38-.03-43.28,1.22.57,1.77.67,2.1.98,8.31,8.23,13.68,17.84,14.19,29.81.31,7.34-1.5,14.15-4.49,20.75-6.03,13.37-20.99,28.04-35.31,35.96Z"/>
      <path class="cls-12" d="m577.18,474.05c1.49-12.87-2.32-24.56-4.47-36.47-1.23-6.8-2.39-13.74-2.2-20.58.37-11.85,6.73-21.08,15.03-29.08,1.4-1.34,2.92-2.58,4.33-3.91,1.5-1.4,2.43-1.13,3.56.59,5.94,9.08,7.94,19.2,7.91,29.8-.05,5.14-.64,10.26-.63,15.43,5.38-14.15,4.91-28.36-.04-43.29,1.25.58,1.78.67,2.11,1,8.3,8.22,13.7,17.83,14.18,29.79.32,7.34-1.51,14.15-4.5,20.77-6.03,13.36-20.97,28.05-35.28,35.96Z"/>
      <path class="cls-14" d="m500.44,449.69c1.73-14.83-2.66-28.27-5.16-42-1.41-7.82-2.76-15.84-2.53-23.7.41-13.65,7.71-24.28,17.32-33.47,1.6-1.55,3.34-2.97,4.96-4.51,1.73-1.62,2.83-1.31,4.12.68,6.82,10.45,9.15,22.1,9.09,34.32-.01,5.92-.73,11.84-.71,17.77,6.18-16.29,5.65-32.68-.03-49.85,1.42.65,2.03.76,2.42,1.13,9.55,9.46,15.76,20.54,16.34,34.32.34,8.46-1.75,16.31-5.18,23.91-6.96,15.4-24.18,32.32-40.65,41.42Z"/>
      <path class="cls-3" d="m434.53,511.17c1.92-16.33-2.94-31.16-5.67-46.27-1.54-8.61-3.06-17.43-2.78-26.11.42-15.01,8.49-26.73,19.05-36.87,1.78-1.72,3.69-3.29,5.49-4.98,1.88-1.77,3.07-1.45,4.53.75,7.52,11.52,10.06,24.35,10.02,37.8-.03,6.52-.81,13.03-.81,19.57,6.82-17.94,6.24-35.99-.05-54.9,1.59.71,2.25.84,2.67,1.24,10.56,10.43,17.36,22.6,18,37.81.39,9.29-1.9,17.96-5.69,26.33-7.67,16.94-26.63,35.57-44.78,45.61Z"/>
      <path class="cls-5" d="m379.97,442.79c1.52-12.87-2.29-24.54-4.47-36.46-1.23-6.79-2.4-13.75-2.19-20.58.36-11.83,6.7-21.07,15.01-29.06,1.4-1.35,2.91-2.58,4.34-3.91,1.49-1.4,2.42-1.14,3.56.59,5.94,9.07,7.92,19.19,7.85,29.79,0,5.14-.6,10.26-.58,15.42,5.35-14.13,4.9-28.37-.05-43.26,1.25.55,1.77.65,2.1.97,8.32,8.23,13.68,17.82,14.2,29.79.3,7.34-1.52,14.17-4.49,20.77-6.05,13.35-21,28.05-35.31,35.94Z"/>
      <path class="cls-6" d="m874.52,324.74c-4.34-14.92-2.64-33.14,11.68-44.83,6.78-5.54,14.18-10.29,21.36-15.34,5.79-4.07,11.24-8.52,15.34-14.39.34-.5.89-.85,1.93-1.84.99,4.12,1.98,7.69,2.78,11.32,3.37,15.53,4.34,31.01-2.17,46.01-6.62,15.22-18.81,23.05-34.96,25.1-.76.09-1.53.08-2.29.06-.17,0-.34-.25-1.13-.86,13.9-8.76,23.56-20.75,28.36-36.53-10.82,14.15-24.11,24.96-40.9,31.32Z"/>
      <path class="cls-4" d="m914.11,621.76c-2.7-5.32-4.8-10.3-7.61-14.83-4.57-7.43-9.69-14.56-14.47-21.84-9.28-14.02-9.28-28.63-2.3-43.5,3.72-7.84,2.62-8.76,9.56-1.52,8.58,8.92,13.65,19.89,17.48,31.51.25.81.51,1.64.82,2.45.26.7.59,1.36,1.16,1.99.06-7.54-.91-15.01-3.57-22-2.6-6.91-6.17-13.46-9.45-20.44.64.07,1.47.01,2.13.26,15.32,5.51,25.31,20.16,25.58,36.52.24,15.19-5.06,28.57-12.31,41.43-1.5,2.64-3.17,5.19-4.83,7.74-.54.81-1.39,1.42-2.2,2.23Z"/>
      <path class="cls-7" d="m976.01,677.79c-2.95-5.81-5.24-11.21-8.3-16.16-4.99-8.07-10.52-15.83-15.76-23.76-10.1-15.29-10.1-31.16-2.49-47.37,4.05-8.55,2.81-9.54,10.42-1.66,9.35,9.71,14.86,21.65,19.01,34.32.3.87.55,1.78.89,2.65.29.76.64,1.49,1.29,2.17.05-8.2-1-16.31-3.9-23.95-2.85-7.51-6.75-14.63-10.29-22.25.67.08,1.57.01,2.34.31,16.67,5.97,27.54,21.93,27.81,39.74.29,16.54-5.49,31.11-13.39,45.1-1.65,2.9-3.46,5.67-5.26,8.43-.57.89-1.52,1.55-2.38,2.44Z"/>
      <path class="cls-2" d="m996.9,798.66c-2.95-5.81-5.25-11.21-8.27-16.15-5-8.09-10.54-15.84-15.8-23.76-10.07-15.3-10.07-31.17-2.46-47.38,4.04-8.55,2.84-9.54,10.41-1.66,9.37,9.71,14.87,21.64,19.03,34.31.28.87.53,1.79.9,2.66.28.76.63,1.5,1.28,2.17.06-8.2-1.03-16.33-3.92-23.96-2.82-7.52-6.72-14.63-10.29-22.24.7.08,1.61,0,2.38.3,16.66,5.97,27.52,21.93,27.78,39.75.29,16.54-5.49,31.11-13.39,45.12-1.61,2.88-3.43,5.66-5.24,8.41-.6.89-1.53,1.55-2.4,2.43Z"/>
      <path class="cls-34" d="m1157.98,643.1c-3.09-6.09-5.51-11.79-8.71-16.97-5.25-8.5-11.09-16.65-16.58-24.99-10.62-16.08-10.62-32.76-2.62-49.8,4.25-8.98,2.98-10.03,10.95-1.74,9.83,10.2,15.63,22.76,19.98,36.08.34.91.57,1.87.95,2.8.32.79.69,1.56,1.35,2.28.06-8.62-1.06-17.15-4.09-25.18-2.98-7.91-7.08-15.39-10.84-23.38.76.07,1.69.01,2.49.29,17.53,6.3,28.96,23.07,29.24,41.82.28,17.37-5.79,32.7-14.08,47.42-1.71,3.04-3.62,5.96-5.51,8.84-.64.93-1.61,1.62-2.52,2.55Z"/>
      <path class="cls-35" d="m1143.81,767.64c-3.73-7.39-6.65-14.28-10.54-20.57-6.35-10.29-13.41-20.16-20.08-30.26-12.86-19.48-12.86-39.7-3.16-60.31,5.14-10.89,3.59-12.15,13.25-2.11,11.91,12.33,18.92,27.56,24.21,43.68.38,1.11.69,2.28,1.13,3.38.36.97.85,1.9,1.66,2.76.06-10.45-1.32-20.76-4.99-30.48-3.61-9.58-8.56-18.65-13.12-28.34.92.1,2.03.02,3.01.39,21.24,7.59,35.05,27.93,35.41,50.6.34,21.06-7,39.62-17.06,57.45-2.05,3.66-4.36,7.21-6.68,10.72-.74,1.14-1.93,1.98-3.04,3.1Z"/>
      <path class="cls-32" d="m1114.2,863.71c-3.43-6.83-6.16-13.21-9.74-19.01-5.87-9.51-12.37-18.64-18.56-28-11.88-17.99-11.88-36.67-2.92-55.76,4.77-10.05,3.33-11.22,12.25-1.95,11.02,11.42,17.5,25.49,22.4,40.39.36,1.04.64,2.1,1.06,3.13.31.92.73,1.76,1.51,2.56.05-9.65-1.21-19.19-4.6-28.17-3.35-8.86-7.91-17.26-12.11-26.2.83.08,1.87,0,2.78.34,19.63,7.04,32.43,25.83,32.73,46.81.33,19.45-6.47,36.61-15.76,53.1-1.91,3.38-4.04,6.67-6.16,9.9-.7,1.06-1.8,1.84-2.85,2.87Z"/>
      <path class="cls-33" d="m1029.85,873.63c-1.31-6.55-2.08-12.55-3.73-18.29-2.71-9.4-6.07-18.61-9.05-27.9-5.76-17.95-1.37-33.68,10.65-47.62,6.36-7.37,5.44-8.67,10.79,1.22,6.55,12.2,8.7,25.57,9.32,39.25.06.96.06,1.94.15,2.9.08.83.21,1.64.68,2.5,2.33-8.12,3.52-16.45,2.76-24.82-.73-8.23-2.6-16.38-4.06-24.88.7.27,1.58.45,2.26.94,14.87,10.54,21.22,29.35,16.56,47.08-4.31,16.46-14.07,29.3-25.75,40.99-2.4,2.41-4.97,4.64-7.52,6.88-.84.72-1.94,1.12-3.06,1.74Z"/>
      <path class="cls-38" d="m966.32,868.95c-2.94-5.77-5.25-11.2-8.28-16.13-5-8.09-10.52-15.84-15.78-23.79-10.07-15.29-10.07-31.15-2.45-47.36,4.02-8.56,2.79-9.55,10.39-1.68,9.35,9.71,14.86,21.66,19.01,34.32.31.88.55,1.79.9,2.67.26.77.65,1.49,1.29,2.17.05-8.21-1.03-16.33-3.9-23.94-2.85-7.53-6.75-14.65-10.31-22.26.72.09,1.59,0,2.36.28,16.67,5.98,27.53,21.94,27.81,39.78.25,16.52-5.49,31.11-13.4,45.1-1.63,2.87-3.43,5.66-5.23,8.41-.62.9-1.54,1.55-2.41,2.41Z"/>
      <path class="cls-36" d="m1010.26,991.3c.62-7.32,1.65-13.94,1.67-20.53.02-10.77-.68-21.56-1.01-32.35-.57-20.79,8.91-36.1,25.94-47.18,9-5.85,8.44-7.51,11.05,4.61,3.22,14.96,1.37,29.78-2.19,44.49-.22,1.01-.56,2.05-.73,3.08-.17.91-.25,1.83-.06,2.86,4.96-7.86,8.8-16.33,10.56-25.41,1.75-8.95,2.28-18.15,3.37-27.62.66.49,1.53.95,2.11,1.68,12.51,15.75,13.45,37.62,3.05,54.98-9.63,16.12-23.91,26.72-39.91,35.51-3.27,1.81-6.7,3.4-10.09,4.98-1.09.49-2.4.59-3.76.9Z"/>
      <path class="cls-37" d="m961.59,1017.67c-1.48-6.32-2.42-12.11-4.24-17.65-2.93-9.04-6.48-17.89-9.68-26.82-6.2-17.25-2.43-32.67,8.8-46.62,5.94-7.37,5-8.61,10.49.85,6.79,11.64,9.31,24.56,10.36,37.83.08.94.1,1.88.25,2.8.1.81.27,1.6.73,2.42,2.02-7.97,2.88-16.1,1.87-24.2-.99-7.98-3.06-15.82-4.74-24.05.67.24,1.54.39,2.2.83,14.81,9.75,21.59,27.82,17.62,45.21-3.63,16.14-12.68,28.93-23.67,40.66-2.27,2.43-4.67,4.69-7.09,6.94-.79.73-1.85,1.14-2.91,1.78Z"/>
      <path class="cls-41" d="m908.45,1090.53c1.47-5.37,3.11-10.12,4-14.98,1.48-7.99,2.42-16.09,3.64-24.12,2.37-15.48,11.52-25.54,25.62-31.44,7.46-3.11,7.25-4.44,7.56,4.91.34,11.49-3.01,22.24-7.64,32.65-.32.73-.67,1.45-.96,2.2-.25.63-.44,1.31-.44,2.1,4.75-5.16,8.72-10.92,11.27-17.42,2.52-6.38,4.11-13.15,6.22-20,.41.46,1.02.91,1.35,1.53,7.14,13.36,4.87,29.69-5.19,41.17-9.32,10.64-21.31,16.55-34.37,20.91-2.68.9-5.41,1.6-8.13,2.32-.89.22-1.86.12-2.93.16Z"/>
      <path class="cls-40" d="m973.83,1044.52c1.06-3.95,2.29-7.45,2.94-11.05,1.09-5.87,1.8-11.84,2.69-17.76,1.74-11.41,8.46-18.82,18.88-23.18,5.5-2.31,5.35-3.28,5.55,3.63.26,8.47-2.23,16.38-5.63,24.06-.24.53-.49,1.06-.7,1.61-.17.48-.33.97-.31,1.56,3.47-3.81,6.42-8.05,8.28-12.83,1.87-4.72,3.07-9.69,4.61-14.75.29.35.73.67.97,1.14,5.25,9.84,3.59,21.88-3.82,30.32-6.87,7.84-15.73,12.2-25.33,15.42-2,.66-3.97,1.19-5.98,1.71-.67.16-1.4.09-2.16.12Z"/>
      <path class="cls-39" d="m991.23,918.89c-.98-4.45-1.55-8.53-2.77-12.44-1.92-6.39-4.32-12.67-6.46-18.99-4.1-12.21-1.29-23,6.81-32.66,4.25-5.09,3.61-5.98,7.37.73,4.6,8.28,6.22,17.39,6.79,26.73.03.67.03,1.32.12,1.97.06.57.17,1.14.49,1.72,1.5-5.56,2.23-11.26,1.63-16.99-.58-5.61-1.97-11.16-3.03-16.97.47.18,1.08.29,1.57.63,10.25,7.04,14.79,19.83,11.78,32.02-2.75,11.29-9.28,20.15-17.16,28.26-1.64,1.68-3.35,3.24-5.07,4.78-.56.5-1.33.8-2.07,1.21Z"/>
      <path class="cls-63" d="m1074.57,650.58c-2.94-5.79-5.24-11.2-8.28-16.14-4.99-8.08-10.53-15.84-15.78-23.78-10.08-15.28-10.08-31.16-2.48-47.36,4.05-8.56,2.84-9.54,10.39-1.67,9.37,9.71,14.88,21.67,19.04,34.3.29.89.56,1.79.88,2.67.3.77.66,1.48,1.3,2.19.05-8.21-1-16.33-3.92-23.95-2.82-7.53-6.73-14.65-10.28-22.27.71.08,1.59.01,2.35.29,16.69,6,27.54,21.94,27.82,39.76.28,16.54-5.5,31.11-13.41,45.1-1.61,2.89-3.43,5.65-5.24,8.42-.58.9-1.52,1.57-2.39,2.42Z"/>
      <path class="cls-61" d="m1037.8,742.07c-3.43-6.8-6.13-13.13-9.7-18.9-5.83-9.45-12.32-18.54-18.46-27.81-11.79-17.88-11.79-36.45-2.89-55.39,4.74-10.01,3.31-11.15,12.17-1.95,10.95,11.35,17.41,25.34,22.24,40.15.35,1.01.66,2.07,1.05,3.09.34.9.78,1.75,1.52,2.56.05-9.6-1.21-19.1-4.57-28-3.32-8.8-7.87-17.14-12.05-26.02.84.08,1.88,0,2.77.32,19.51,7,32.19,25.66,32.55,46.5.28,19.34-6.45,36.39-15.68,52.75-1.91,3.38-4.04,6.62-6.16,9.84-.68,1.05-1.76,1.83-2.78,2.87Z"/>
      <path class="cls-62" d="m932.23,750.66c-3.4-6.79-6.09-13.11-9.68-18.89-5.84-9.47-12.31-18.53-18.43-27.8-11.79-17.88-11.79-36.45-2.91-55.39,4.72-10.01,3.32-11.17,12.19-1.95,10.94,11.36,17.37,25.33,22.21,40.13.37,1.02.64,2.1,1.04,3.11.34.91.78,1.76,1.51,2.56.08-9.61-1.19-19.09-4.56-28-3.33-8.8-7.87-17.15-12.05-26.04.84.1,1.87,0,2.78.34,19.5,6.99,32.19,25.66,32.52,46.49.32,19.34-6.46,36.4-15.67,52.76-1.89,3.37-4.02,6.63-6.13,9.84-.7,1.04-1.78,1.83-2.83,2.85Z"/>
      <path class="cls-69" d="m773.46,182.16c14.46,5.3,27.67,11.96,37.93,23.42,6.1,6.8,10.19,14.51,11.23,23.66,1.25,10.98-2.17,20.57-8.97,29.38,1.11-15.13-1.72-29.19-10.75-41.63.74,2.76,1.71,5.48,2.2,8.28,2.22,12.34,1.83,24.58-1.25,36.75-.53,2.02-1.31,2.18-2.97,1.34-9.51-4.76-17.81-10.91-22.38-20.86-3-6.52-3.54-13.57-3.43-20.69.14-9.84.16-19.71-.03-29.52-.05-3.2-.96-6.38-1.57-10.13Z"/>
      <path class="cls-70" d="m1040.2,390c-14.08-3.57-27.35-.12-40.67,1.01-15.73,1.34-28.07-4.92-37.67-17.06-1.64-2.03-3.09-4.16-4.77-6.47,15.44-6.23,30.86-6.07,46.53-3.35-6.21-4.05-12.98-6.74-20.14-7.64-7.02-.89-14.2-.68-21.57-.97.34-.38.73-1.03,1.31-1.48,18.24-14.8,40.3-13.51,56.84,3.33,8.59,8.72,14.56,19.1,19.47,30.17.27.55.33,1.18.66,2.47Z"/>
      <path class="cls-67" d="m897.47,441.54c-14.05-3.57-27.3-.12-40.64,1.01-15.73,1.31-28.09-4.92-37.7-17.09-1.6-2.02-3.05-4.13-4.73-6.46,15.46-6.22,30.83-6.08,46.54-3.35-6.22-4.06-12.99-6.73-20.15-7.66-7.01-.89-14.17-.66-21.55-.94.33-.39.71-1.03,1.29-1.49,18.26-14.8,40.3-13.51,56.85,3.35,8.56,8.71,14.56,19.1,19.47,30.15.27.54.32,1.19.63,2.48Z"/>
      <path class="cls-68" d="m891.76,378.48c-17.61-4.47-34.2-.15-50.9,1.26-19.66,1.65-35.11-6.16-47.15-21.4-2-2.51-3.81-5.17-5.93-8.08,19.33-7.78,38.62-7.6,58.25-4.19-7.8-5.08-16.22-8.44-25.22-9.57-8.77-1.12-17.75-.84-26.99-1.2.41-.46.94-1.3,1.63-1.85,22.83-18.53,50.43-16.89,71.15,4.18,10.7,10.9,18.19,23.91,24.35,37.73.34.7.41,1.48.81,3.12Z"/>
      <path class="cls-65" d="m852.79,203.03c4.5,6.52,9.34,12.87,13.42,19.65,4.54,7.59,7.38,15.91,8.18,24.82,1.53,17.19-7.88,32.24-24.38,39.39,1.18-2.23,1.84-3.8,2.75-5.23,6.07-9.51,8.47-20.04,8.69-31.16.03-1.15-.21-2.3-.28-3-2.58,6.33-4.74,13.26-8.14,19.51-3.27,6.03-7.81,11.42-11.87,17.02-1.45,1.99-2.98,2.5-4.31-.27-2.49-5.14-5.62-10.06-7.37-15.44-3.4-10.44-.86-20.31,4.6-29.57,3.71-6.24,7.74-12.32,11.06-18.75,2.29-4.36,3.64-9.21,5.4-13.82.39-.96.77-1.89,1.15-2.83.34-.12.73-.21,1.09-.33Z"/>
      <path class="cls-66" d="m931.34,127.18c3.18,8.33,6.77,16.57,9.43,25.09,2.94,9.51,3.84,19.4,2.35,29.36-2.91,19.23-17.23,33.22-37.21,36.64,1.88-2.14,3.06-3.67,4.42-4.99,9.18-8.81,14.61-19.69,17.81-31.81.38-1.26.38-2.6.47-3.35-4.47,6.24-8.66,13.25-14.07,19.19-5.19,5.74-11.6,10.41-17.54,15.48-2.13,1.8-3.93,1.93-4.63-1.46-1.33-6.29-3.47-12.49-3.98-18.86-.91-12.34,4.5-22.47,12.93-31.14,5.71-5.85,11.76-11.43,17.12-17.6,3.66-4.15,6.42-9.1,9.6-13.67.65-.94,1.32-1.88,1.99-2.8.43-.03.86-.04,1.32-.07Z"/>
      <path class="cls-64" d="m1005.51,502.01c-4.24-11.63-12.63-19.76-20.05-28.6-6.39-7.59-11.77-15.65-12.67-25.85-.83-9.21,1.54-17.81,5.46-26.77,14.46,9.39,21.63,23.65,27.98,38.66,1.17-2.94-1.16-14.56-4.65-21.38-3.4-6.58-7.22-12.96-10.86-19.5.31.02,1.04-.08,1.68.08,16.15,4.85,26.11,17.79,27.21,34.7,1.15,17.3-4.9,32.54-12.91,47.28-.19.37-.54.65-1.19,1.37Z"/>
      <path class="cls-53" d="m857.16,528.94c.8.54,1.92,1.11,2.8,1.91,13,11.86,15.81,28.57,7.52,45.75-6.26,12.91-16.12,22.75-27.32,31.39-.15.13-.43.08-.87.16-.15-.52-.51-1.09-.48-1.64.55-8.71-2.68-16.61-4.95-24.75-2.03-7.4-4.24-14.9-4.93-22.47-.97-10.62,3.88-19.56,10.83-27.38,1.7-1.9,3.53-3.69,5.58-5.82,4.56,6.83,7.37,13.73,8.43,21.17,1.08,7.28,1.62,14.64,2.46,22.69,2.36-7.04,3.43-13.73,3-20.52-.43-6.78-1.35-13.5-2.06-20.49Z"/>
      <path class="cls-71" d="m778.63,531.93c.77.5,1.81,1.04,2.65,1.79,12.27,11.23,14.93,26.99,7.06,43.2-5.88,12.19-15.18,21.49-25.76,29.65-.14.11-.39.08-.82.14-.15-.49-.5-1.05-.46-1.55.5-8.23-2.54-15.67-4.65-23.37-1.97-6.97-4.02-14.07-4.67-21.23-.9-10.02,3.67-18.46,10.23-25.83,1.6-1.8,3.33-3.49,5.29-5.5,4.28,6.46,6.94,12.96,7.95,19.99,1.03,6.87,1.51,13.82,2.33,21.44,2.22-6.66,3.2-12.97,2.81-19.4-.38-6.39-1.27-12.75-1.94-19.34Z"/>
      <path class="cls-52" d="m956.13,522.19c.9-14.11-2.65-27.19-9.59-39.64,5.57,1.68,10.06,4.78,13.86,8.76,8.9,9.32,10.93,20.73,8.96,32.94-2.33,14.51-9.5,26.88-18.25,38.42-.37.47-.96.76-1.51,1.16-1.64-4.14-2.81-8.34-4.85-12.09-4.31-7.87-9.22-15.43-13.62-23.24-7.43-13.16-6.66-26.35.27-39.44.81-1.54,1.71-3.02,2.58-4.54.2-.38.4-.77.9-1.79,11.99,10.92,17.25,24.76,21.26,39.46Z"/>
      <path class="cls-59" d="m1143.01,388.41c-3.24.03-6.29-.46-9.14.15-7.76,1.65-15.65,3.07-23.06,5.86-18.59,7.03-35.47,4.28-51.04-8.72-4.54-3.82-8.86-7.95-13.81-12.4,17.31-9.73,35.28-10.22,53.81-9.51-2.47-.77-4.89-1.71-7.38-2.29-13.88-3.12-27.41-.66-40.91,2.28-.97.22-1.96.42-2.94.54-.18.02-.41-.25-.96-.62,5.29-5.12,11.17-8.91,17.67-11.62,16.87-7.02,32.92-4,48.27,5.67,11.66,7.34,20.7,17.6,28.9,28.82.28.37.32.95.6,1.82Z"/>
      <path class="cls-60" d="m958.79,460.28c-9.69-7.9-20.85-10.09-30.95-14.62-12.87-5.76-18.33-16.37-19.73-29.75-.05-.42.17-.86.32-1.62,12.59.8,22.52,7.24,32.39,14.05-6.16-9.18-14.76-15.26-26.02-19.87,1.97-.71,2.89-1.21,3.88-1.38,12.69-2.31,24.82,3.33,31.34,14.57,5.55,9.53,8.11,19.88,8.45,30.85.08,2.2.2,4.39.31,7.76Z"/>
      <path class="cls-57" d="m1154.72,535.83c-8.99-7.32-19.31-9.33-28.67-13.52-11.9-5.32-16.97-15.15-18.27-27.52-.05-.38.17-.8.31-1.52,11.66.76,20.87,6.71,29.98,13.01-5.69-8.49-13.68-14.13-24.06-18.38,1.81-.67,2.68-1.11,3.57-1.29,11.76-2.13,22.96,3.12,29,13.51,5.13,8.8,7.52,18.38,7.83,28.53.05,2.03.17,4.05.31,7.17Z"/>
      <path class="cls-58" d="m1075.32,750.99c-.11-12.01-5.33-21.59-8.18-31.83-3.61-13.03.87-23.58,9.9-32.81.27-.29.73-.42,1.39-.75,7.13,9.78,8.44,21.08,9.48,32.53,3.01-10.18,2.2-20.27-1.28-31.39,1.72,1.02,2.65,1.42,3.4,2.02,9.47,7.97,12.74,20.38,8.41,32.07-3.64,9.93-9.7,18.17-17.61,25.15-1.58,1.4-3.11,2.82-5.52,4.99Z"/>
      <path class="cls-55" d="m837.85,646.6c-8.96-7.31-19.29-9.34-28.65-13.53-11.89-5.31-16.97-15.14-18.26-27.51-.05-.39.15-.81.31-1.53,11.64.76,20.86,6.71,29.97,13.03-5.68-8.52-13.67-14.13-24.05-18.4,1.8-.65,2.65-1.1,3.57-1.26,11.75-2.14,22.96,3.08,29,13.49,5.12,8.81,7.52,18.38,7.81,28.53.07,2.03.18,4.05.31,7.19Z"/>
      <path class="cls-56" d="m855.79,682.79c2.55-15.09-1.87-28.28-3.19-41.75-1.64-17.16,6.29-29.38,19.67-38.89.42-.31,1.03-.36,1.93-.64,6.75,13.89,5.92,28.34,4.67,42.94,6.03-12.07,7.26-24.92,5.37-39.65,1.94,1.68,3.01,2.36,3.81,3.31,10.11,12.12,11.44,28.42,3.46,42.11-6.79,11.63-16.21,20.6-27.66,27.55-2.29,1.41-4.54,2.85-8.05,5.03Z"/>
      <path class="cls-54" d="m943.83,398.86c-9.56-7.79-20.54-9.93-30.5-14.39-12.68-5.67-18.09-16.13-19.46-29.28-.03-.43.18-.88.35-1.64,12.38.81,22.17,7.14,31.92,13.86-6.09-9.07-14.59-15.04-25.65-19.57,1.96-.7,2.84-1.2,3.82-1.38,12.49-2.26,24.45,3.32,30.88,14.36,5.45,9.4,8.01,19.58,8.32,30.4.05,2.15.21,4.31.33,7.64Z"/>
      <path class="cls-44" d="m811.05,435.87c-20.77-5.25-40.25-.18-59.88,1.49-23.13,1.94-41.32-7.27-55.46-25.16-2.36-2.96-4.51-6.08-7.01-9.52,22.75-9.14,45.43-8.93,68.52-4.91-9.16-5.97-19.1-9.93-29.65-11.26-10.32-1.32-20.86-1-31.75-1.43.48-.55,1.07-1.51,1.91-2.19,26.87-21.76,59.32-19.87,83.7,4.94,12.6,12.82,21.39,28.1,28.67,44.37.38.82.44,1.76.95,3.66Z"/>
      <path class="cls-45" d="m853.22,109.53c-21.15.37-37.45,11.04-55.09,18.24-20.79,8.48-40.95,4.05-60.51-10.48-3.2-2.4-6.33-5.04-9.87-7.87,17.86-15.79,39.02-21.91,61.88-24.19-10.6-3.63-21.26-4.93-31.53-3.36-10.07,1.53-19.75,4.8-29.98,7.4.21-.72.42-1.86.96-2.79,17.2-29.98,48.03-37.07,79.49-18.27,16.3,9.73,29.9,23.05,42.47,37.82.63.74,1.05,1.69,2.18,3.51Z"/>
      <path class="cls-42" d="m749.1,539.42c-4.23-11.64-12.62-19.79-20.05-28.62-6.38-7.58-11.77-15.63-12.69-25.86-.83-9.2,1.56-17.79,5.46-26.75,14.44,9.38,21.63,23.64,27.96,38.64,1.18-2.93-1.15-14.57-4.64-21.37-3.39-6.59-7.2-12.96-10.85-19.48.34,0,1.04-.09,1.68.1,16.17,4.82,26.09,17.76,27.21,34.67,1.15,17.31-4.9,32.55-12.9,47.31-.21.35-.54.62-1.19,1.37Z"/>
      <path class="cls-43" d="m685.89,434.72c-8.96-7.32-19.28-9.33-28.65-13.52-11.9-5.34-16.98-15.16-18.25-27.52-.05-.4.16-.83.3-1.52,11.64.76,20.84,6.7,29.98,13.02-5.68-8.53-13.69-14.13-24.07-18.4,1.84-.64,2.65-1.14,3.58-1.28,11.75-2.12,22.96,3.09,29,13.5,5.13,8.82,7.53,18.4,7.82,28.55.05,2.03.18,4.06.3,7.19Z"/>
      <path class="cls-50" d="m909.59,101.64c-7.08,11.96-7.64,24.57-10.95,36.42-4.24,15.09-15,22.86-29.46,26.59-.46.12-.99-.04-1.87-.1-1.16-13.97,4.28-25.96,10.14-37.91-9.08,8.26-14.33,18.77-17.57,31.85-1.11-2.04-1.79-2.96-2.14-4.02-4.62-13.57-.41-27.83,10.84-36.84,9.58-7.67,20.54-12.21,32.53-14.38,2.39-.43,4.8-.91,8.48-1.62Z"/>
      <path class="cls-51" d="m1001.11,175.4c-7.69,14.39-7.68,29.22-10.96,43.31-4.16,17.92-16.41,27.61-33.18,32.73-.52.18-1.16,0-2.17,0-2.11-16.35,3.62-30.69,9.91-45.03-10.26,10.19-15.87,22.78-18.98,38.3-1.39-2.34-2.28-3.41-2.73-4.6-6.12-15.68-1.93-32.63,10.84-43.83,10.84-9.48,23.44-15.37,37.41-18.54,2.78-.63,5.58-1.33,9.86-2.35Z"/>
      <path class="cls-49" d="m858.59,160.98c-12.65,3.87-21.13,12.41-31.04,18.65-12.64,7.93-25.21,6.51-37.77-.13-.41-.2-.67-.66-1.26-1.24,8.13-10.6,19.66-15.58,31.4-20.23-11.7,0-22.12,4.04-32.75,11.19.52-2.15.65-3.25,1.05-4.2,5.42-12.52,17.55-19.88,31.25-19.01,11.65.74,22.26,4.52,32.09,10.68,1.97,1.24,3.97,2.42,7.03,4.29Z"/>
      <path class="cls-46" d="m727.21,30.85c-10.25,5.66-16.06,14.61-23.53,21.83-9.51,9.18-20.67,10.23-32.77,6.78-.37-.11-.71-.45-1.3-.86,5.09-10.66,14.15-17.08,23.56-23.27-10.18,2.15-18.47,7.54-26.4,15.7.08-1.96-.05-2.94.15-3.86,2.42-11.84,11.59-20.43,23.63-22.17,10.25-1.49,20.15-.12,29.8,3.42,1.94.71,3.89,1.36,6.88,2.44Z"/>
      <path class="cls-47" d="m889.06,483.01c-2.76-11.51-10.08-20.15-19.1-28.74,7.96-.41,13.81,2.16,19.13,6.05,6.82,5.03,10.68,11.99,12.49,20.17,3.08,13.92.89,27.36-3.54,40.59-.17.52-.6.93-.41.63-8.83-7.74-17.67-15.39-26.39-23.12-11.76-10.44-15.67-25.34-10.51-40.53,12.18,5.23,20.56,14.59,28.32,24.95Z"/>
      <path class="cls-48" d="m1088.85,872.65c-.76-11.37-6.27-20.75-13.42-30.36,7.59.9,12.76,4.28,17.15,8.84,5.65,5.88,8.17,13.11,8.57,21.18.63,13.71-3.65,26.11-10.01,37.93-.24.47-.71.79-.48.54-7.1-8.77-14.25-17.48-21.26-26.25-9.46-11.82-10.75-26.6-3.37-40.17,10.73,6.96,17.14,17.2,22.82,28.3Z"/>
    </g>
    <path class="cls-159" d="m866.69,1142.6l-6.18-9.83,1.57-2.72c4.07-6.85,8.28-13.61,12.5-20.38,8.89-14.26,18.07-29.03,25.49-44.19,30.91-63.11,41.14-129.91,30.38-198.55-14.91-94.99-62.19-171.69-140.6-227.99-55.82-40.06-117.96-60.9-184.69-61.95-76.41-1.21-138.55-21.87-189.98-63.2-58.31-46.85-93.73-106.95-105.24-178.66-13.57-84.29,6.2-160.44,58.78-226.36,47.88-60.08,108.59-95.31,180.5-104.78,20.31-2.65,40.99-4.01,61.46-4.01,71.66,0,143.21,15.76,218.83,48.18,135.5,58.11,237.92,154.81,304.45,287.44,43.9,87.5,64.73,182.99,61.92,283.79-2.55,91.95-25.21,179.55-67.26,260.39-41.21,79.24-97.68,146.29-167.82,199.29-19.85,15-41.02,28.76-61.52,42.06-9.43,6.13-18.86,12.25-28.18,18.5l-4.4,2.94ZM610.67,10.29c-20.02,0-40.28,1.32-60.09,3.93-69.18,9.09-127.66,43.05-173.83,100.97-50.69,63.55-69.75,137.01-56.66,218.33,11.12,69.11,45.29,127.06,101.56,172.26,49.57,39.83,109.62,59.75,183.68,60.92,68.85,1.09,132.96,22.58,190.53,63.9,80.74,57.94,129.44,136.91,144.78,234.74,11.08,70.76.56,139.63-31.31,204.67-7.65,15.64-16.98,30.62-26.01,45.1-1.45,2.33-2.89,4.65-4.34,6.97,4.89-3.19,9.8-6.38,14.69-9.56,20.32-13.21,41.36-26.85,60.91-41.63,68.91-52.06,124.4-117.96,164.89-195.84,41.33-79.44,63.59-165.53,66.08-255.92,2.77-99.09-17.68-192.92-60.81-278.89-65.41-130.39-166.11-225.45-299.31-282.58-74.32-31.88-144.57-47.37-214.77-47.37Zm-80.08,282.54h-.01c-18.33-.1-36.02-7.81-48.92-21.15-12.61-13.04-19.57-30.43-19.1-47.69,1.01-36.89,31.55-66.95,68.07-66.99h.08c18,0,35.06,7.19,48.08,20.26,13,13.03,20.15,30.09,20.1,48-.1,36.63-31.4,67.57-68.3,67.57Zm.12-130.69l-.06,5.14c-30.49.06-56.96,26.15-57.82,56.98-.4,14.52,5.51,29.2,16.21,40.26,10.99,11.35,26.01,17.92,41.19,18.01,31.71,0,58.26-26.24,58.34-57.3.05-15.17-6.01-29.64-17.06-40.71-11.1-11.12-25.55-17.24-40.8-17.24v-5.14Z"/>
  </g>
  <path class="cls-160" d="m585.45,1197.17c-71.63,0-143.21-15.75-218.82-48.18-135.49-58.1-237.91-154.81-304.45-287.43C18.28,774.06-2.55,678.57.25,577.77c2.59-91.95,25.19-179.56,67.26-260.39,41.23-79.24,97.7-146.3,167.83-199.3,19.86-15,41.04-28.76,61.5-42.06,9.43-6.12,18.86-12.23,28.19-18.49l4.41-2.94,6.18,9.83-1.58,2.73c-4.06,6.82-8.27,13.6-12.49,20.36-8.89,14.28-18.07,29.03-25.49,44.19-30.92,63.12-41.15,129.92-30.39,198.56,14.88,95,62.2,171.7,140.62,227.97,55.83,40.07,117.96,60.92,184.68,61.97,76.41,1.2,138.55,21.86,189.98,63.19,58.31,46.85,93.72,106.95,105.25,178.65,13.58,84.3-6.21,160.48-58.76,226.38-47.9,60.06-108.64,95.31-180.54,104.76-20.28,2.66-40.98,4.01-61.46,4.01ZM317.14,75.1c-4.87,3.2-9.77,6.39-14.69,9.57-20.32,13.2-41.34,26.85-60.89,41.63-68.91,52.08-124.4,117.97-164.92,195.84-41.32,79.43-63.58,165.54-66.07,255.93-2.78,99.09,17.69,192.92,60.81,278.88,65.4,130.4,166.11,225.48,299.31,282.59,74.32,31.88,144.56,47.36,214.75,47.36,20.06,0,40.28-1.32,60.13-3.93,69.14-9.08,127.65-43.05,173.81-100.96,50.7-63.56,69.74-137.01,56.66-218.31-11.11-69.11-45.27-127.06-101.54-172.26-49.59-39.83-109.67-59.76-183.67-60.93-68.88-1.09-132.97-22.58-190.54-63.89-80.73-57.96-129.44-136.93-144.79-234.75-11.08-70.77-.55-139.63,31.31-204.67,7.66-15.63,16.98-30.63,26.01-45.1,1.45-2.32,2.88-4.65,4.31-6.98Zm348.37,965.1c-18.09,0-35.16-7.21-48.18-20.27-13-13.04-20.12-30.07-20.09-48.02.1-36.61,31.4-67.56,68.33-67.56h.38c17.94.1,35.63,7.81,48.52,21.15,12.6,13.05,19.59,30.43,19.11,47.7-1.01,36.89-31.56,66.94-68.07,67Zm.06-130.7v5.15c-31.38,0-57.94,26.23-58.03,57.29-.04,15.18,6.01,29.64,17.07,40.72,11.06,11.11,25.57,17.23,40.81,17.23,30.55-.04,57.03-26.14,57.87-56.98.41-14.5-5.51-29.18-16.21-40.24-10.97-11.37-26-17.93-41.18-18.02l-.32-5.15Z"/>
  <g>
    <g>
      <path class="cls-153" d="m526.93,1175.73c2.59-5.84,5.71-11.21,7.37-16.97,2.62-9.17,5.06-18.5,6.22-27.93,3.59-29.9,20.79-48.5,47.75-59.41,4.87-1.96,9.87-3.64,14.85-5.41.76-.27,1.62-.29,3.2-.59.61,27.39-10.87,50.15-24.35,72.29,19.82-17.44,26.91-41.54,33.94-65.74,3.01,9.17,3.76,18.29,3.12,27.51-2.03,28.11-17.35,47.3-41.13,60.61-15.37,8.61-32.18,12.93-49.46,15.79-.37.08-.82-.08-1.51-.16Z"/>
      <path class="cls-158" d="m537.53,1053.47c.04,11.52-2.39,21.34-6.91,30.52-4.37,8.99-9.54,17.6-14.81,27.11,5.75-4.54,9.99-9.54,13.36-15.19,3.37-5.65,6.36-11.62,8.92-17.69,2.61-6.11,4.54-12.53,7.02-19.59,2.16,8.43,2.47,16.2,1.35,24-3.41,23.72-17.89,38.53-38.96,47.85-11.61,5.15-23.92,7.54-36.46,8.94-.3.02-.65-.13-1.26-.27.36-.78.6-1.52,1.01-2.12,5.25-7.4,7.82-15.89,9.83-24.62,2.25-9.78,3.9-19.73,8.91-28.66,6.48-11.55,16.76-18.54,28.61-23.45,6.07-2.51,12.4-4.39,19.38-6.81Z"/>
      <path class="cls-157" d="m423.35,1041.74c5.63-3.45,11.62-6.46,16.9-10.41,6.49-4.83,12.26-10.59,18.58-15.66,12.3-9.9,26.43-11.63,41.38-8.44,6.81,1.46,13.44,3.73,20.78,5.79-12.42,16.58-29.38,24.61-47.43,30.96.08.33.11.61.19.91,2.46-.31,4.97-.44,7.4-.98,15.15-3.38,27.67-11.76,39.77-20.93.56-.44,1.14-.85,2.3-1.71-.23,1.32-.21,2.04-.49,2.56-7.84,15.56-19.21,26.99-36.62,31.35-9.39,2.35-18.81,2.16-28.23.32-11.67-2.31-22.54-6.91-32.91-12.68-.72-.39-1.36-.89-1.62-1.07Z"/>
      <path class="cls-151" d="m691.17,1119.93c-3.52-17.45-2.96-34.54,3.15-51.36,17.58,10.56,27.53,25.24,26.37,44.23-.44,7.54-1.41,15.06-2.24,22.58-.89,7.56-.8,15.09.96,22.55.11.47.13.99.32,2.4-4.62-2.21-8.73-4.05-12.72-6.14-9.87-5.16-18.95-11.37-26.4-19.82-14.95-16.96-16.02-38.1-2.86-56.56,1.27-1.77,2.66-3.51,4.37-5.16-1.06,8.26-1.28,16.37.27,24.54,1.52,8.1,4.52,15.57,8.78,22.75Z"/>
      <path class="cls-155" d="m796.41,1095.13c-20.13,4.61-39.51,7.7-58.93.69-17.14-6.21-27.3-18.48-30.16-36.54-.78-4.95-1.1-9.99-.95-15.28,9.33,16.14,22.17,27.94,39.06,35.15.41-.4.83-.81,1.23-1.2-1.14-.62-2.45-1.09-3.41-1.92-12.88-11.32-22.29-24.98-27.94-41.22-.61-1.77-1.08-3.12,1.55-3.2,14.12-.37,27.94.91,39.26,10.44,4.5,3.82,8.44,8.47,11.78,13.34,5.2,7.59,9.41,15.9,14.58,23.55,3.27,4.77,7.53,8.89,11.34,13.27.73.86,1.45,1.67,2.59,2.92Z"/>
      <path class="cls-156" d="m778.45,860.53c-4.08,1.03-8.12,2.25-12.21,3.07-7.8,1.6-15.71,1.85-23.35-.69-9.96-3.3-16.24-10.16-18.53-20.46-.43-1.89-.57-3.83-.93-6.08,3.67,3.87,6.82,7.57,10.39,10.83,3.58,3.27,7.86,5.56,12.64,6.79-5.55-3.03-10.82-6.52-14.66-11.58-2.35-3.08-3.97-6.73-5.87-10.15-.56-.97-.57-1.9.89-2.21,8.27-1.72,16.36-1.92,23.99,2.53,4.45,2.62,7.85,6.34,11.06,10.28,4.11,4.98,7.78,10.34,12.99,14.32,1.16.89,2.38,1.69,3.56,2.54,0,.27.02.54.03.81Z"/>
      <path class="cls-152" d="m519.47,821.71c12.25,3.51,24.15,1.69,36.02,1.5,6.79-.09,13.71-.11,20.3,1.19,11.42,2.23,19.34,9.86,25.75,19.19,1.09,1.58,2.03,3.25,3.09,4.83,1.12,1.68.73,2.54-1.13,3.37-9.74,4.28-19.84,4.61-30.14,2.86-4.96-.85-9.84-2.26-14.84-3.07,12.85,7.48,26.71,9.3,41.94,6.91-.76,1.12-.94,1.63-1.28,1.9-9.31,6.72-19.49,10.37-31.14,8.95-7.17-.88-13.47-3.73-19.41-7.68-11.96-7.99-23.78-24.82-29.16-39.94Z"/>
      <path class="cls-154" d="m746.98,956.47c12.9-1.55,27.73,2.36,35.43,15.78,3.65,6.35,6.56,13.13,9.75,19.74,2.59,5.36,5.5,10.47,9.78,14.66.38.35.61.82,1.27,1.82-3.53.28-6.62.59-9.74.75-13.27.7-26.2-.63-37.7-8.06-11.66-7.55-16.45-18.69-15.95-32.33.03-.62.14-1.27.25-1.89.05-.15.25-.24.87-.82,5.33,12.69,13.92,22.29,26.32,28.41-10.23-10.86-17.32-23.33-20.29-38.06Z"/>
      <path class="cls-108" d="m428.22,929.6c5.59-1.75,10.72-3.01,15.57-4.99,7.92-3.25,15.63-7.03,23.47-10.52,15.11-6.73,29.19-4.38,42.49,4.77,7.03,4.85,8.08,3.93-.04,9.51-10.02,6.87-21.46,10.02-33.34,11.85-.83.13-1.66.22-2.48.39-.73.16-1.42.38-2.13.84,7.28,1.25,14.67,1.51,21.87.07,7.12-1.45,14.04-3.85,21.32-5.89-.15.63-.24,1.43-.6,2.04-7.78,13.97-23.57,21.28-39.46,18.91-14.76-2.21-26.84-9.48-38.17-18.57-2.32-1.88-4.53-3.88-6.7-5.9-.7-.68-1.15-1.6-1.79-2.5Z"/>
      <path class="cls-105" d="m876.55,863.84c-7.47,13.17-16.03,24.91-28.78,33.02-7.54,4.8-15.69,7.52-24.71,7.04-10.85-.51-19.58-5.39-27.02-13.38,14.48,3.5,28.55,3,42.04-3.75-2.78.29-5.59.8-8.38.83-12.3.13-24.09-2.21-35.4-7.11-1.87-.85-1.88-1.63-.83-3.11,6.16-8.45,13.44-15.51,23.82-18.34,6.8-1.87,13.71-1.26,20.59,0,9.52,1.71,19.04,3.32,28.6,4.73,3.11.44,6.31.06,10.07.06Z"/>
      <path class="cls-106" d="m629.39,1094.97c3.92-8.98,3.1-18.18,3.83-27.19.83-10.6,6.34-18.12,15.48-23.19,1.53-.84,3.11-1.58,4.83-2.44,2.46,10.95.64,21.2-2.88,31.32,3.39-3.69,5.91-7.89,7.31-12.54,1.36-4.57,2-9.37,3-14.25.23.26.6.59.84,1.02,7.84,13.78,4.54,28.3-8.49,37.47-6.72,4.73-14.28,7.56-22.18,9.63-.41.1-.83.07-1.74.16Z"/>
      <path class="cls-109" d="m602.72,919.36c5.72-13.08,4.51-26.46,5.55-39.56,1.24-15.43,9.26-26.4,22.61-33.77,2.2-1.24,4.48-2.29,7-3.55,3.56,15.95.95,30.86-4.22,45.61,4.94-5.38,8.62-11.49,10.65-18.28,1.97-6.66,2.89-13.63,4.37-20.74.33.39.88.87,1.24,1.48,11.4,20.07,6.6,41.21-12.35,54.55-9.81,6.89-20.84,11.03-32.34,14.04-.55.14-1.2.11-2.51.22Z"/>
      <path class="cls-121" d="m743.11,933.6c-9.56-10.59-22.24-14.99-33.75-21.34-13.55-7.48-20.23-19.33-21.46-34.51-.21-2.52-.23-5.03-.34-7.85,15.98,3.34,28.51,11.88,39.82,22.67-2.88-6.73-6.89-12.59-12.26-17.23-5.26-4.57-11.23-8.29-17.08-12.55.47-.13,1.15-.44,1.87-.51,22.96-2.12,40.24,10.97,44.58,33.75,2.24,11.76,1.45,23.52-.57,35.22-.1.59-.37,1.16-.81,2.37Z"/>
      <path class="cls-119" d="m843.62,937.35c-7.07,3.31-13.96,6.98-21.2,9.83-8.05,3.18-16.57,4.62-25.33,3.94-16.88-1.26-29.98-12.8-34.27-29.92,1.97,1.51,3.4,2.42,4.62,3.52,8.25,7.4,18.07,11.4,28.8,13.41,1.13.22,2.28.15,2.93.19-5.7-3.49-12.06-6.69-17.57-10.99-5.32-4.14-9.81-9.38-14.56-14.23-1.74-1.74-1.98-3.31.92-4.14,5.4-1.56,10.66-3.83,16.15-4.65,10.65-1.6,19.8,2.45,27.9,9.21,5.45,4.56,10.7,9.45,16.39,13.72,3.86,2.9,8.3,4.98,12.51,7.44.85.51,1.68,1.03,2.54,1.57.06.36.1.74.17,1.11Z"/>
      <path class="cls-120" d="m529.52,1037.33c11.95-2.24,21.19-9.06,30.94-14.82,8.35-4.95,17.02-8.9,27.06-8.13,9.06.68,17.01,4.34,25.06,9.59-11.41,12.48-26.36,17.14-41.91,20.88,2.63,1.59,14.29,1.2,21.43-1.06,6.92-2.23,13.69-4.91,20.61-7.42-.05.32-.08,1.06-.34,1.64-7.29,14.85-21.42,22.43-37.96,20.79-16.97-1.67-30.76-9.97-43.77-20.09-.31-.24-.53-.62-1.13-1.37Z"/>
      <path class="cls-107" d="m527.25,889.31c-.67.69-1.39,1.67-2.29,2.41-13.6,10.7-30.24,10.73-45.55-.07-11.5-8.11-19.45-19.26-26.03-31.49-.08-.16,0-.44,0-.87.53-.06,1.17-.33,1.66-.2,8.36,1.92,16.51.05,24.78-.83,7.46-.81,15.08-1.72,22.54-1.16,10.44.76,18.34,6.89,24.77,14.88,1.57,1.95,3,3.99,4.76,6.33-7.37,3.32-14.48,4.93-21.84,4.78-7.24-.13-14.46-.81-22.42-1.28,6.46,3.41,12.75,5.51,19.41,6.18,6.62.7,13.29.87,20.2,1.3Z"/>
      <path class="cls-118" d="m517.9,986.26c13.53,3.14,26.77,1.8,39.94-2.93-2.52,5.12-6.24,8.98-10.72,12.02-10.46,7.12-21.82,7.27-33.34,3.4-13.68-4.6-24.49-13.53-34.27-23.84-.39-.43-.57-1.06-.89-1.65,4.29-.9,8.54-1.38,12.51-2.76,8.31-2.92,16.41-6.44,24.67-9.48,13.94-5.09,26.6-2.2,38.14,6.62,1.39,1.02,2.67,2.12,4.02,3.19.34.27.66.52,1.57,1.17-12.48,9.85-26.72,12.75-41.62,14.25Z"/>
      <path class="cls-122" d="m617.51,1188.74c.49-3.16,1.46-6.03,1.33-8.89-.37-7.78-.47-15.66-1.99-23.27-3.82-19.12,1.55-35.03,16.64-48.03,4.44-3.8,9.1-7.32,14.19-11.37,6.69,18.31,4.27,35.78.6,53.6,1.16-2.23,2.48-4.43,3.4-6.75,5.25-12.94,5.03-26.45,4.37-39.99-.05-.98-.06-1.96-.05-2.95,0-.17.29-.34.76-.83,4.09,5.94,6.82,12.24,8.4,18.98,4.09,17.47-1.41,32.51-13.23,45.85-8.97,10.1-20.38,17.24-32.55,23.36-.41.21-.98.18-1.87.31Z"/>
      <path class="cls-117" d="m827.69,1032.81c-1.82-13.53-9.06-23.57-13.74-34.72-5.94-14.18-2.39-26.73,6.48-38.4.27-.38.79-.58,1.49-1.06,9.42,10.04,12.52,22.56,15.29,35.36,1.97-11.92-.38-23.21-5.87-35.24,2.1.91,3.19,1.21,4.11,1.79,11.82,7.63,17.27,21.17,14.08,34.97-2.69,11.74-8.37,21.92-16.29,30.89-1.58,1.8-3.13,3.62-5.54,6.41Z"/>
      <path class="cls-104" d="m802.25,1092.87c-1.73-12.88-8.62-22.44-13.07-33.07-5.66-13.49-2.24-25.44,6.18-36.54.24-.36.73-.55,1.4-1.03,8.98,9.59,11.93,21.51,14.56,33.67,1.88-11.34-.38-22.08-5.58-33.52,2,.84,3.03,1.13,3.9,1.69,11.25,7.26,16.44,20.15,13.42,33.29-2.59,11.16-7.98,20.83-15.51,29.39-1.51,1.7-2.98,3.44-5.29,6.11Z"/>
      <path class="cls-103" d="m557.41,930.58c8.83-.66,16.12-4.98,23.57-10.6-.65,5.92-3.27,9.93-6.82,13.39-4.54,4.43-10.16,6.41-16.41,6.77-10.67.56-20.34-2.7-29.6-7.6-.36-.18-.58-.54-.41-.36,6.79-5.59,13.52-11.19,20.34-16.7,9.15-7.42,20.66-8.49,31.27-2.81-5.36,8.36-13.3,13.42-21.92,17.91Z"/>
    </g>
    <path class="cls-116" d="m43.91,715.6c6.28,1.62,12.19,3.85,18.27,4.56,9.64,1.12,19.43,2.03,29.07,1.6,30.67-1.35,52.22,12.83,67.66,38.09,2.8,4.6,5.31,9.34,7.92,14.04.4.72.57,1.57,1.1,3.12-27.42,5.14-52.2-2.59-76.69-12.45,20.83,17.03,46.23,20.13,71.71,23.16-8.7,4.56-17.74,6.84-27.13,7.72-28.57,2.66-50.43-9.55-67.75-31.25-11.2-14.02-18.35-30.2-24.07-47.07-.15-.39-.09-.85-.09-1.53Z"/>
    <path class="cls-111" d="m499.87,625.49c3.87,5.22,7.04,10.68,11.33,15.04,6.79,6.94,13.82,13.8,21.61,19.56,24.66,18.23,32.5,42.82,28.61,72.16-.73,5.32-1.74,10.59-2.69,15.89-.14.81-.54,1.57-1.09,3.11-24.55-13.25-38.96-34.82-51.8-57.92,5.5,26.33,23.27,44.72,41.2,63.13-9.65-1.93-18.13-5.85-25.95-11.08-23.88-15.92-33.2-39.15-33.02-66.91.13-17.95,4.77-35.03,10.93-51.75.11-.39.48-.69.89-1.24Z"/>
    <path class="cls-110" d="m175.75,705.89c-11.58,1.97-21.84,1.12-31.83-1.84-9.78-2.91-19.29-6.68-29.72-10.38,5.51,5.01,11.26,8.44,17.49,10.89,6.26,2.44,12.72,4.46,19.27,6.05,6.55,1.6,13.33,2.45,20.87,3.78-8.12,3.56-15.89,5.18-23.89,5.35-24.43.54-41.72-11.58-54.59-31.2-7.11-10.82-11.55-22.79-15.03-35.16-.08-.29.02-.67.05-1.31.84.23,1.61.34,2.3.64,8.33,4.06,17.29,5.25,26.4,5.81,10.17.63,20.46.61,30.27,4.18,12.68,4.6,21.43,13.76,28.32,24.84,3.53,5.69,6.46,11.74,10.08,18.36Z"/>
    <path class="cls-113" d="m168.53,589.19c4.38,5.12,8.42,10.6,13.27,15.27,5.92,5.71,12.67,10.55,18.82,16.05,11.99,10.72,16.09,24.66,15.37,40.21-.35,7.08-1.51,14.12-2.36,21.83-18.74-9.75-29.63-25.43-39-42.49-.31.1-.57.21-.87.32.71,2.44,1.26,4.95,2.2,7.28,5.91,14.63,16.43,25.83,27.68,36.46.51.49,1.04,1.02,2.07,2.04-1.34-.02-2.06.13-2.64-.07-16.93-5.29-30.32-14.83-37.57-31.59-3.92-9.03-5.33-18.56-5.03-28.29.38-12.13,3.18-23.81,7.25-35.19.28-.78.67-1.52.83-1.84Z"/>
    <path class="cls-112" d="m134.51,871.37c16.97-6.46,34.21-8.75,52.16-5.4-7.72,19.42-20.82,31.86-40.09,33.86-7.64.81-15.34,1.11-23.04,1.5-7.74.39-15.3,1.7-22.5,4.71-.47.2-.97.31-2.36.75,1.44-5.03,2.61-9.47,4.05-13.8,3.52-10.79,8.29-20.97,15.55-29.83,14.54-17.84,35.6-22.46,56.33-12.31,2.01,1.01,3.98,2.1,5.94,3.53-8.5.34-16.7,1.46-24.65,4.37-7.87,2.88-14.88,7.12-21.39,12.63Z"/>
    <path class="cls-115" d="m165.15,974.19c-3.79-20.67-6.11-40.53,1.9-59.96,7.08-17.18,20.02-26.99,38.53-29.1,5.08-.58,10.23-.68,15.57-.31-16.84,8.79-29.4,21.35-37.49,38.24.41.41.79.84,1.21,1.27.67-1.13,1.19-2.44,2.07-3.36,12.11-12.62,26.41-21.6,43.2-26.63,1.83-.55,3.2-.96,3.17,1.71-.24,14.39-2.16,28.39-12.36,39.49-4.06,4.41-8.98,8.21-14.09,11.39-7.96,4.96-16.58,8.88-24.59,13.82-5,3.08-9.4,7.24-14.02,10.94-.9.7-1.75,1.43-3.08,2.49Z"/>
    <path class="cls-114" d="m408.46,925.28c-2.06-4.69-4.3-9.28-6.1-14.07-3.51-9.08-5.36-18.51-3.83-28.2,2-12.59,8.96-21.51,20.9-26.33,2.18-.88,4.5-1.44,7.15-2.32-3.96,5.19-7.78,9.7-10.97,14.66-3.25,4.95-5.13,10.54-5.68,16.53,2.58-7.26,5.71-14.3,11.01-19.91,3.24-3.45,7.3-6.14,11.03-9.1,1.06-.84,2.18-1.07,2.82.64,3.72,9.59,5.6,19.26,1.76,29.32-2.26,5.87-6.07,10.71-10.14,15.35-5.19,5.92-10.9,11.4-14.68,18.44-.81,1.58-1.54,3.19-2.33,4.78-.31.07-.63.16-.96.21Z"/>
    <path class="cls-87" d="m405.63,656.14c-1.5,12.87,2.31,24.56,4.48,36.46,1.22,6.8,2.41,13.76,2.19,20.58-.36,11.84-6.68,21.08-15.02,29.06-1.4,1.36-2.91,2.6-4.34,3.94-1.48,1.39-2.43,1.13-3.56-.59-5.94-9.09-7.92-19.2-7.89-29.82.02-5.12.61-10.25.61-15.42-5.36,14.13-4.9,28.37.03,43.29-1.23-.56-1.77-.67-2.09-.98-8.31-8.22-13.7-17.84-14.2-29.81-.3-7.33,1.52-14.15,4.5-20.74,6.04-13.38,20.99-28.05,35.28-35.96Z"/>
    <path class="cls-91" d="m681.84,647.41c-1.58,13.62,2.45,25.94,4.73,38.52,1.29,7.19,2.55,14.54,2.31,21.76-.36,12.51-7.08,22.27-15.86,30.7-1.48,1.42-3.07,2.73-4.59,4.14-1.56,1.49-2.56,1.2-3.76-.62-6.26-9.6-8.4-20.28-8.36-31.48.05-5.43.68-10.85.67-16.3-5.68,14.95-5.19,29.99.05,45.74-1.34-.6-1.89-.7-2.25-1.04-8.76-8.69-14.43-18.85-14.98-31.49-.31-7.75,1.57-14.96,4.76-21.94,6.36-14.12,22.14-29.62,37.26-37.99Z"/>
    <path class="cls-82" d="m608.86,630.34c-1.51,12.87,2.29,24.54,4.47,36.46,1.22,6.79,2.39,13.76,2.2,20.59-.36,11.83-6.7,21.07-15.03,29.05-1.39,1.35-2.92,2.57-4.31,3.92-1.49,1.41-2.44,1.15-3.58-.59-5.94-9.08-7.93-19.18-7.9-29.78.02-5.16.65-10.29.63-15.43-5.35,14.13-4.9,28.38.04,43.26-1.23-.55-1.79-.65-2.09-.97-8.31-8.23-13.71-17.83-14.21-29.81-.3-7.35,1.51-14.15,4.51-20.76,6.03-13.37,20.98-28.05,35.29-35.95Z"/>
    <path class="cls-86" d="m618.95,723.13c-1.52,12.88,2.3,24.55,4.47,36.47,1.23,6.81,2.4,13.76,2.19,20.59-.34,11.84-6.69,21.08-15,29.07-1.41,1.34-2.92,2.58-4.34,3.9-1.49,1.41-2.46,1.15-3.58-.58-5.92-9.09-7.92-19.19-7.89-29.8.05-5.15.64-10.28.63-15.44-5.37,14.15-4.92,28.39.03,43.3-1.25-.57-1.77-.68-2.1-.99-8.31-8.21-13.69-17.83-14.18-29.79-.31-7.35,1.48-14.16,4.49-20.77,6.02-13.37,20.97-28.04,35.28-35.96Z"/>
    <path class="cls-85" d="m695.71,747.48c-1.74,14.84,2.65,28.28,5.14,42,1.42,7.82,2.75,15.84,2.52,23.71-.41,13.63-7.7,24.27-17.29,33.47-1.61,1.55-3.35,2.96-5,4.51-1.71,1.6-2.81,1.31-4.11-.68-6.81-10.46-9.13-22.11-9.06-34.32.01-5.92.73-11.82.69-17.78-6.17,16.3-5.64,32.69.05,49.86-1.43-.64-2.06-.76-2.42-1.13-9.55-9.47-15.76-20.53-16.32-34.32-.36-8.44,1.71-16.3,5.17-23.91,6.93-15.38,24.15-32.3,40.65-41.41Z"/>
    <path class="cls-90" d="m761.62,686.01c-1.94,16.34,2.92,31.15,5.68,46.27,1.54,8.62,3.01,17.44,2.76,26.11-.46,15.01-8.5,26.74-19.06,36.87-1.77,1.71-3.69,3.28-5.48,4.97-1.89,1.79-3.07,1.45-4.54-.74-7.52-11.53-10.04-24.36-10-37.8.03-6.54.81-13.04.81-19.58-6.82,17.93-6.23,35.99.03,54.89-1.6-.7-2.24-.84-2.68-1.23-10.53-10.43-17.33-22.62-17.97-37.8-.4-9.31,1.88-17.97,5.68-26.34,7.66-16.96,26.63-35.57,44.79-45.62Z"/>
    <path class="cls-84" d="m816.13,754.39c-1.49,12.88,2.33,24.54,4.48,36.47,1.22,6.8,2.4,13.75,2.2,20.58-.34,11.82-6.71,21.06-15.01,29.06-1.42,1.35-2.91,2.58-4.34,3.92-1.51,1.39-2.42,1.14-3.56-.6-5.94-9.08-7.91-19.19-7.89-29.79,0-5.14.63-10.27.61-15.43-5.35,14.15-4.9,28.38.03,43.27-1.22-.55-1.77-.65-2.1-.96-8.29-8.23-13.67-17.83-14.19-29.8-.28-7.34,1.51-14.15,4.51-20.77,6.05-13.36,20.97-28.03,35.27-35.95Z"/>
    <path class="cls-89" d="m321.61,872.44c4.36,14.92,2.64,33.14-11.68,44.82-6.78,5.54-14.17,10.3-21.38,15.34-5.77,4.08-11.22,8.53-15.32,14.39-.34.5-.89.86-1.93,1.85-1.02-4.13-1.98-7.71-2.77-11.33-3.43-15.52-4.36-31.01,2.14-46,6.62-15.21,18.81-23.05,34.98-25.1.74-.09,1.52-.07,2.29-.05.16,0,.29.25,1.12.87-13.91,8.74-23.57,20.74-28.36,36.54,10.82-14.16,24.12-24.97,40.9-31.32Z"/>
    <path class="cls-88" d="m282.03,575.43c2.67,5.32,4.78,10.28,7.59,14.82,4.59,7.44,9.68,14.56,14.49,21.84,9.27,14.04,9.27,28.63,2.27,43.51-3.71,7.84-2.59,8.77-9.55,1.54-8.57-8.93-13.66-19.91-17.48-31.52-.25-.82-.51-1.64-.82-2.45-.25-.7-.58-1.37-1.16-1.98-.07,7.54.93,14.99,3.56,21.99,2.62,6.91,6.17,13.45,9.46,20.43-.65-.06-1.48,0-2.15-.25-15.34-5.51-25.32-20.16-25.58-36.52-.23-15.19,5.05-28.58,12.32-41.43,1.49-2.65,3.15-5.21,4.82-7.74.54-.8,1.39-1.42,2.21-2.22Z"/>
    <path class="cls-83" d="m220.14,519.4c2.94,5.81,5.24,11.22,8.28,16.16,4.99,8.09,10.55,15.84,15.76,23.77,10.09,15.29,10.09,31.15,2.49,47.36-4.03,8.54-2.82,9.53-10.39,1.67-9.35-9.71-14.86-21.66-19.01-34.32-.29-.88-.57-1.79-.9-2.67-.27-.75-.65-1.48-1.28-2.17-.05,8.21,1.01,16.32,3.9,23.95,2.84,7.52,6.73,14.65,10.3,22.25-.7-.07-1.6-.01-2.36-.29-16.67-5.98-27.54-21.94-27.82-39.75-.27-16.55,5.51-31.11,13.4-45.11,1.61-2.91,3.45-5.66,5.25-8.43.59-.88,1.52-1.55,2.39-2.43Z"/>
    <path class="cls-130" d="m199.23,398.52c2.92,5.8,5.23,11.22,8.29,16.15,4.99,8.09,10.52,15.84,15.76,23.77,10.08,15.3,10.08,31.15,2.48,47.37-4.04,8.54-2.82,9.54-10.41,1.66-9.35-9.7-14.87-21.65-19.02-34.3-.3-.88-.52-1.79-.9-2.68-.26-.74-.64-1.48-1.29-2.16-.05,8.21,1.04,16.32,3.92,23.95,2.83,7.52,6.73,14.64,10.31,22.25-.73-.07-1.6,0-2.36-.29-16.67-5.99-27.53-21.94-27.81-39.76-.28-16.54,5.5-31.11,13.39-45.1,1.61-2.89,3.43-5.66,5.24-8.43.59-.88,1.52-1.55,2.4-2.42Z"/>
    <path class="cls-131" d="m38.17,554.08c3.05,6.09,5.48,11.79,8.7,16.98,5.22,8.5,11.07,16.65,16.58,24.99,10.6,16.06,10.6,32.77,2.6,49.79-4.24,9-2.98,10.03-10.94,1.74-9.84-10.19-15.63-22.77-19.99-36.06-.32-.92-.59-1.89-.93-2.81-.31-.8-.69-1.56-1.36-2.26-.07,8.61,1.06,17.15,4.12,25.18,2.96,7.9,7.07,15.38,10.82,23.38-.75-.08-1.67,0-2.49-.29-17.55-6.3-28.95-23.07-29.23-41.82-.28-17.37,5.77-32.69,14.07-47.42,1.72-3.03,3.63-5.94,5.52-8.84.62-.92,1.59-1.64,2.53-2.56Z"/>
    <path class="cls-129" d="m52.32,429.54c3.71,7.39,6.66,14.28,10.55,20.56,6.35,10.29,13.4,20.19,20.08,30.27,12.84,19.47,12.84,39.68,3.17,60.31-5.16,10.89-3.62,12.15-13.26,2.12-11.9-12.35-18.93-27.56-24.22-43.68-.37-1.12-.7-2.29-1.14-3.4-.37-.98-.83-1.89-1.64-2.76-.09,10.44,1.28,20.77,4.95,30.48,3.63,9.58,8.6,18.66,13.13,28.36-.89-.1-2.03-.02-2.99-.38-21.24-7.62-35.08-27.93-35.41-50.63-.35-21.05,6.99-39.61,17.05-57.42,2.07-3.68,4.38-7.23,6.68-10.72.75-1.15,1.93-1.99,3.05-3.11Z"/>
    <path class="cls-125" d="m81.92,333.48c3.46,6.83,6.16,13.2,9.76,19.02,5.86,9.5,12.37,18.63,18.56,27.99,11.89,18,11.89,36.67,2.94,55.76-4.77,10.07-3.34,11.24-12.27,1.95-11.01-11.42-17.49-25.49-22.4-40.39-.34-1.03-.63-2.11-1.05-3.13-.32-.9-.75-1.75-1.51-2.57-.05,9.67,1.19,19.21,4.59,28.19,3.37,8.87,7.92,17.26,12.12,26.22-.83-.1-1.88,0-2.77-.35-19.63-7.03-32.43-25.81-32.76-46.81-.31-19.46,6.5-36.61,15.79-53.1,1.91-3.39,4.03-6.67,6.16-9.91.7-1.05,1.81-1.82,2.85-2.86Z"/>
    <path class="cls-126" d="m166.28,323.54c1.28,6.57,2.06,12.56,3.75,18.3,2.72,9.4,6.03,18.61,9.04,27.91,5.77,17.94,1.38,33.67-10.65,47.62-6.38,7.36-5.45,8.67-10.78-1.25-6.59-12.2-8.73-25.56-9.35-39.23-.03-.96-.03-1.93-.13-2.89-.08-.83-.21-1.64-.68-2.52-2.33,8.11-3.5,16.45-2.75,24.8.73,8.24,2.6,16.39,4.07,24.9-.72-.26-1.61-.44-2.28-.94-14.86-10.54-21.23-29.36-16.55-47.09,4.3-16.46,14.06-29.3,25.75-40.99,2.4-2.4,4.96-4.64,7.52-6.88.84-.71,1.95-1.11,3.06-1.74Z"/>
    <path class="cls-132" d="m229.81,328.21c2.94,5.79,5.22,11.21,8.28,16.14,5.03,8.08,10.54,15.86,15.79,23.78,10.07,15.29,10.07,31.16,2.47,47.36-4.04,8.56-2.85,9.55-10.42,1.69-9.33-9.73-14.85-21.68-18.99-34.34-.31-.85-.57-1.77-.91-2.65-.29-.75-.64-1.48-1.29-2.18-.05,8.21,1.03,16.33,3.92,23.95,2.83,7.54,6.73,14.65,10.31,22.25-.73-.08-1.62,0-2.36-.27-16.68-5.99-27.54-21.95-27.83-39.77-.26-16.52,5.51-31.11,13.38-45.12,1.64-2.85,3.44-5.65,5.27-8.4.6-.89,1.51-1.55,2.39-2.43Z"/>
    <path class="cls-123" d="m185.86,205.87c-.6,7.34-1.64,13.94-1.65,20.54-.02,10.77.69,21.57.99,32.34.6,20.79-8.88,36.09-25.93,47.18-9.02,5.84-8.44,7.51-11.03-4.62-3.22-14.95-1.38-29.78,2.17-44.46.23-1.01.55-2.05.73-3.1.18-.91.24-1.82.05-2.86-4.95,7.86-8.77,16.34-10.55,25.43-1.75,8.93-2.26,18.15-3.39,27.61-.64-.49-1.53-.95-2.08-1.67-12.53-15.74-13.45-37.63-3.06-54.99,9.63-16.1,23.91-26.72,39.89-35.51,3.28-1.81,6.68-3.4,10.08-4.98,1.11-.48,2.42-.59,3.77-.9Z"/>
    <path class="cls-124" d="m234.56,179.51c1.47,6.33,2.42,12.12,4.23,17.65,2.94,9.04,6.47,17.89,9.69,26.83,6.18,17.24,2.42,32.67-8.83,46.61-5.93,7.36-4.99,8.62-10.47-.85-6.79-11.64-9.31-24.56-10.37-37.84-.07-.93-.08-1.86-.24-2.79-.08-.81-.28-1.6-.73-2.41-2,7.96-2.87,16.08-1.86,24.18.99,7.98,3.07,15.83,4.73,24.06-.67-.25-1.54-.38-2.2-.82-14.82-9.77-21.59-27.84-17.65-45.22,3.66-16.14,12.7-28.92,23.71-40.66,2.26-2.42,4.67-4.69,7.07-6.94.8-.73,1.85-1.15,2.93-1.8Z"/>
    <path class="cls-127" d="m287.68,106.66c-1.47,5.35-3.11,10.1-4.02,14.99-1.46,7.98-2.41,16.07-3.63,24.11-2.38,15.47-11.49,25.54-25.63,31.44-7.44,3.1-7.22,4.43-7.53-4.93-.36-11.51,3-22.24,7.63-32.67.31-.72.7-1.44.97-2.19.26-.63.44-1.31.42-2.11-4.74,5.17-8.7,10.92-11.26,17.42-2.51,6.39-4.13,13.16-6.23,20.01-.41-.46-1.03-.92-1.32-1.53-7.15-13.36-4.89-29.7,5.16-41.16,9.32-10.62,21.32-16.57,34.36-20.92,2.68-.88,5.42-1.61,8.17-2.32.88-.23,1.85-.11,2.91-.15Z"/>
    <path class="cls-128" d="m222.31,152.67c-1.07,3.95-2.3,7.44-2.98,11.03-1.09,5.89-1.74,11.87-2.66,17.78-1.74,11.41-8.47,18.82-18.88,23.17-5.51,2.29-5.35,3.27-5.56-3.61-.24-8.49,2.23-16.41,5.64-24.08.21-.52.47-1.06.69-1.61.2-.47.33-.98.31-1.57-3.5,3.82-6.41,8.05-8.27,12.85-1.86,4.71-3.07,9.69-4.62,14.74-.31-.33-.73-.67-.98-1.13-5.28-9.84-3.59-21.86,3.82-30.34,6.87-7.82,15.72-12.2,25.32-15.4,1.98-.65,4.01-1.19,6-1.72.66-.17,1.38-.09,2.16-.12Z"/>
    <path class="cls-75" d="m204.9,278.28c.97,4.47,1.55,8.55,2.78,12.46,1.91,6.4,4.33,12.66,6.42,19,4.13,12.19,1.3,22.99-6.77,32.64-4.28,5.09-3.62,5.99-7.38-.73-4.61-8.29-6.21-17.39-6.78-26.73-.05-.66-.05-1.31-.14-1.98-.05-.57-.15-1.12-.47-1.69-1.51,5.55-2.24,11.25-1.64,16.96.57,5.63,1.97,11.16,3.04,16.98-.5-.19-1.09-.28-1.58-.62-10.24-7.05-14.8-19.83-11.79-32.01,2.78-11.29,9.31-20.15,17.19-28.28,1.61-1.66,3.33-3.24,5.06-4.78.56-.49,1.35-.8,2.06-1.22Z"/>
    <path class="cls-74" d="m121.55,546.6c2.95,5.8,5.24,11.2,8.3,16.14,4.98,8.09,10.52,15.85,15.76,23.79,10.09,15.27,10.09,31.15,2.46,47.35-4.01,8.55-2.81,9.55-10.4,1.67-9.34-9.72-14.86-21.65-19.01-34.31-.3-.87-.54-1.79-.89-2.65-.28-.77-.64-1.5-1.29-2.2-.06,8.21,1,16.34,3.92,23.96,2.82,7.53,6.72,14.64,10.28,22.27-.71-.08-1.58-.02-2.36-.31-16.67-5.98-27.55-21.95-27.83-39.75-.25-16.54,5.52-31.11,13.42-45.11,1.61-2.89,3.42-5.65,5.22-8.43.62-.89,1.53-1.55,2.41-2.42Z"/>
    <path class="cls-77" d="m158.35,455.13c3.4,6.78,6.1,13.1,9.69,18.89,5.81,9.43,12.31,18.53,18.43,27.8,11.8,17.88,11.8,36.45,2.91,55.4-4.74,10-3.33,11.16-12.18,1.94-10.95-11.35-17.4-25.33-22.26-40.13-.33-1.02-.63-2.08-1.04-3.1-.35-.9-.76-1.75-1.5-2.55-.05,9.6,1.17,19.09,4.58,28.01,3.31,8.78,7.87,17.13,12.02,26.02-.82-.08-1.88,0-2.75-.34-19.5-6.98-32.2-25.63-32.54-46.48-.3-19.35,6.43-36.39,15.66-52.76,1.91-3.38,4.01-6.61,6.14-9.84.7-1.03,1.78-1.82,2.82-2.84Z"/>
    <path class="cls-76" d="m263.9,446.53c3.4,6.78,6.11,13.11,9.67,18.88,5.84,9.46,12.34,18.54,18.45,27.82,11.79,17.87,11.79,36.44,2.9,55.38-4.73,10.01-3.32,11.18-12.19,1.95-10.92-11.34-17.36-25.32-22.22-40.12-.33-1.03-.64-2.1-1.06-3.11-.31-.89-.74-1.74-1.5-2.55-.05,9.61,1.2,19.1,4.59,28,3.31,8.8,7.86,17.13,12.05,26.04-.85-.09-1.88-.01-2.78-.35-19.51-6.99-32.22-25.65-32.53-46.48-.31-19.33,6.43-36.39,15.67-52.77,1.9-3.36,4.02-6.6,6.13-9.83.7-1.04,1.77-1.83,2.82-2.84Z"/>
    <path class="cls-80" d="m422.67,1015.03c-14.46-5.3-27.66-11.95-37.94-23.42-6.08-6.8-10.17-14.51-11.23-23.68-1.26-10.98,2.19-20.57,8.97-29.36-1.09,15.13,1.74,29.16,10.77,41.62-.77-2.78-1.72-5.48-2.23-8.29-2.2-12.33-1.8-24.58,1.26-36.75.54-2,1.32-2.16,2.98-1.34,9.49,4.78,17.83,10.91,22.4,20.87,2.99,6.52,3.53,13.58,3.4,20.7-.11,9.84-.15,19.7.02,29.52.07,3.2.97,6.36,1.59,10.13Z"/>
    <path class="cls-78" d="m155.91,807.18c14.11,3.56,27.33.13,40.69-1.01,15.72-1.34,28.07,4.92,37.69,17.07,1.61,2.02,3.05,4.15,4.74,6.47-15.42,6.22-30.85,6.08-46.53,3.35,6.19,4.04,12.96,6.74,20.12,7.64,7.04.88,14.2.69,21.56.97-.31.38-.73,1.04-1.3,1.49-18.22,14.79-40.28,13.5-56.85-3.35-8.56-8.71-14.53-19.09-19.46-30.16-.25-.55-.32-1.18-.67-2.47Z"/>
    <path class="cls-79" d="m298.63,755.65c14.08,3.57,27.35.12,40.68-1.02,15.73-1.31,28.07,4.92,37.67,17.1,1.61,2.01,3.07,4.13,4.75,6.44-15.44,6.22-30.85,6.07-46.54,3.34,6.23,4.06,13,6.75,20.15,7.67,7.01.88,14.19.66,21.55.94-.31.39-.73,1.04-1.28,1.5-18.26,14.79-40.31,13.5-56.86-3.35-8.58-8.7-14.55-19.1-19.47-30.17-.24-.53-.31-1.2-.65-2.47Z"/>
    <path class="cls-72" d="m304.37,818.7c17.61,4.46,34.21.16,50.9-1.25,19.65-1.66,35.11,6.16,47.17,21.39,1.99,2.51,3.79,5.19,5.92,8.08-19.33,7.79-38.63,7.6-58.26,4.19,7.81,5.09,16.22,8.43,25.21,9.57,8.78,1.13,17.77.85,26.99,1.2-.4.47-.92,1.3-1.61,1.87-22.83,18.52-50.44,16.88-71.15-4.2-10.72-10.9-18.2-23.9-24.35-37.72-.33-.71-.42-1.5-.82-3.13Z"/>
    <path class="cls-81" d="m343.32,994.14c-4.47-6.51-9.32-12.85-13.4-19.65-4.51-7.57-7.38-15.89-8.18-24.82-1.53-17.17,7.89-32.24,24.38-39.39-1.16,2.23-1.84,3.8-2.75,5.23-6.08,9.53-8.47,20.04-8.7,31.17-.03,1.16.23,2.31.28,2.99,2.58-6.32,4.73-13.25,8.13-19.48,3.28-6.05,7.79-11.42,11.85-17.05,1.46-1.99,3-2.49,4.33.29,2.48,5.14,5.61,10.05,7.36,15.42,3.4,10.44.86,20.32-4.6,29.58-3.69,6.23-7.73,12.31-11.06,18.74-2.27,4.36-3.63,9.21-5.39,13.83-.38.96-.76,1.9-1.15,2.83-.34.11-.73.22-1.11.32Z"/>
    <path class="cls-73" d="m264.81,1070c-3.19-8.33-6.78-16.56-9.45-25.08-2.92-9.52-3.83-19.41-2.32-29.36,2.89-19.22,17.21-33.21,37.19-36.64-1.89,2.14-3.06,3.67-4.44,4.98-9.18,8.82-14.59,19.71-17.82,31.82-.34,1.27-.35,2.59-.45,3.35,4.47-6.24,8.67-13.25,14.08-19.18,5.19-5.74,11.58-10.41,17.53-15.47,2.14-1.82,3.95-1.94,4.64,1.43,1.35,6.3,3.46,12.51,3.98,18.87.9,12.35-4.52,22.48-12.95,31.15-5.7,5.84-11.73,11.43-17.1,17.59-3.65,4.15-6.42,9.09-9.58,13.69-.67.94-1.35,1.86-2.02,2.79-.44.01-.87.04-1.3.06Z"/>
    <path class="cls-101" d="m190.62,695.17c4.24,11.62,12.61,19.78,20.05,28.62,6.36,7.58,11.76,15.63,12.67,25.84.83,9.21-1.54,17.81-5.48,26.76-14.43-9.38-21.63-23.64-27.95-38.64-1.16,2.94,1.16,14.56,4.64,21.37,3.38,6.59,7.19,12.98,10.86,19.49-.33,0-1.05.09-1.68-.09-16.16-4.83-26.1-17.79-27.21-34.68-1.16-17.3,4.9-32.55,12.91-47.3.19-.37.53-.62,1.19-1.37Z"/>
    <path class="cls-99" d="m338.98,668.25c-.81-.55-1.92-1.12-2.82-1.92-12.99-11.87-15.78-28.57-7.48-45.74,6.24-12.92,16.1-22.76,27.29-31.4.15-.12.42-.08.87-.16.14.53.52,1.1.49,1.64-.55,8.71,2.68,16.61,4.93,24.75,2.07,7.4,4.26,14.9,4.95,22.48.96,10.62-3.9,19.55-10.83,27.38-1.7,1.9-3.54,3.68-5.58,5.81-4.56-6.83-7.38-13.72-8.44-21.16-1.09-7.28-1.61-14.65-2.45-22.71-2.36,7.05-3.42,13.73-3.01,20.53.42,6.77,1.35,13.48,2.07,20.49Z"/>
    <path class="cls-100" d="m417.51,665.25c-.79-.51-1.83-1.05-2.65-1.8-12.31-11.2-14.94-26.98-7.11-43.21,5.9-12.19,15.23-21.47,25.79-29.64.14-.1.39-.08.82-.14.16.5.49,1.04.44,1.55-.48,8.22,2.55,15.67,4.69,23.36,1.94,7,4,14.08,4.65,21.24.91,10.02-3.68,18.47-10.23,25.84-1.58,1.8-3.33,3.49-5.26,5.5-4.31-6.46-6.94-12.96-7.98-19.99-1-6.88-1.48-13.82-2.29-21.43-2.25,6.65-3.21,12.96-2.82,19.4.39,6.37,1.25,12.73,1.95,19.33Z"/>
    <path class="cls-97" d="m240.01,675.01c-.91,14.09,2.64,27.17,9.59,39.62-5.55-1.67-10.07-4.76-13.86-8.75-8.89-9.34-10.94-20.74-8.98-32.95,2.35-14.51,9.52-26.86,18.24-38.42.38-.46.96-.75,1.52-1.15,1.64,4.14,2.84,8.34,4.86,12.08,4.31,7.88,9.18,15.44,13.62,23.25,7.43,13.15,6.64,26.34-.28,39.43-.8,1.55-1.71,3.01-2.56,4.55-.21.36-.4.76-.92,1.77-11.97-10.91-17.25-24.74-21.24-39.43Z"/>
    <path class="cls-98" d="m53.13,808.78c3.24-.03,6.29.45,9.12-.16,7.79-1.66,15.67-3.06,23.08-5.84,18.56-7.03,35.44-4.29,51.02,8.71,4.56,3.81,8.87,7.94,13.81,12.39-17.32,9.74-35.27,10.21-53.8,9.51,2.45.77,4.87,1.72,7.36,2.3,13.89,3.12,27.42.65,40.91-2.28.97-.22,1.94-.42,2.95-.54.18-.03.39.24.95.63-5.28,5.11-11.15,8.9-17.65,11.6-16.86,7.01-32.92,3.99-48.27-5.68-11.65-7.33-20.72-17.59-28.87-28.82-.3-.39-.35-.95-.61-1.82Z"/>
    <path class="cls-95" d="m237.31,736.91c9.71,7.9,20.87,10.08,30.98,14.61,12.86,5.75,18.35,16.38,19.73,29.74.06.42-.15.87-.33,1.64-12.57-.81-22.53-7.24-32.4-14.05,6.16,9.19,14.78,15.27,26.03,19.87-1.97.73-2.89,1.2-3.88,1.39-12.67,2.31-24.82-3.34-31.34-14.59-5.55-9.53-8.11-19.87-8.45-30.84-.06-2.2-.21-4.39-.35-7.76Z"/>
    <path class="cls-96" d="m41.42,661.35c8.95,7.32,19.3,9.32,28.64,13.52,11.92,5.32,17,15.16,18.26,27.52.06.39-.15.81-.28,1.53-11.66-.75-20.85-6.7-29.99-13.01,5.68,8.5,13.69,14.12,24.06,18.38-1.81.67-2.67,1.12-3.57,1.28-11.73,2.14-22.95-3.09-29.01-13.49-5.11-8.82-7.49-18.39-7.82-28.54-.05-2.04-.15-4.06-.29-7.18Z"/>
    <path class="cls-93" d="m120.82,446.19c.09,12,5.32,21.59,8.15,31.83,3.65,13.02-.83,23.58-9.86,32.79-.29.31-.76.42-1.41.76-7.13-9.8-8.44-21.08-9.47-32.53-3.02,10.17-2.2,20.26,1.25,31.39-1.74-1.03-2.63-1.4-3.39-2.03-9.48-7.97-12.74-20.38-8.44-32.07,3.66-9.92,9.74-18.17,17.63-25.14,1.58-1.39,3.12-2.82,5.54-5Z"/>
    <path class="cls-94" d="m358.28,550.58c8.97,7.32,19.29,9.35,28.64,13.53,11.89,5.32,16.97,15.14,18.26,27.51.04.4-.15.83-.3,1.53-11.63-.75-20.86-6.71-29.97-13.01,5.69,8.5,13.68,14.13,24.07,18.39-1.8.65-2.66,1.1-3.59,1.27-11.74,2.14-22.95-3.09-29-13.51-5.12-8.8-7.5-18.38-7.83-28.53-.05-2.02-.15-4.05-.29-7.18Z"/>
    <path class="cls-92" d="m340.35,514.39c-2.53,15.08,1.89,28.27,3.17,41.76,1.66,17.15-6.29,29.36-19.64,38.89-.44.3-1.04.35-1.95.63-6.73-13.9-5.92-28.33-4.65-42.94-6.03,12.08-7.27,24.92-5.36,39.65-1.96-1.66-3.04-2.35-3.82-3.3-10.12-12.11-11.43-28.41-3.45-42.1,6.78-11.63,16.21-20.61,27.65-27.55,2.29-1.4,4.55-2.85,8.05-5.03Z"/>
    <path class="cls-134" d="m252.31,798.32c9.55,7.8,20.54,9.92,30.52,14.38,12.66,5.68,18.06,16.14,19.43,29.29.05.43-.17.88-.34,1.64-12.4-.83-22.18-7.14-31.9-13.87,6.07,9.07,14.57,15.05,25.62,19.58-1.94.68-2.85,1.19-3.81,1.37-12.49,2.26-24.44-3.3-30.86-14.38-5.45-9.37-8.02-19.57-8.33-30.38-.05-2.16-.18-4.31-.32-7.64Z"/>
    <path class="cls-133" d="m385.1,761.32c20.73,5.24,40.25.18,59.88-1.49,23.12-1.95,41.29,7.25,55.47,25.16,2.34,2.94,4.47,6.08,6.98,9.5-22.73,9.16-45.43,8.95-68.5,4.92,9.14,5.97,19.08,9.92,29.62,11.26,10.36,1.31,20.88,1.01,31.76,1.42-.48.57-1.05,1.53-1.9,2.2-26.87,21.76-59.31,19.86-83.69-4.94-12.6-12.82-21.4-28.11-28.67-44.37-.39-.83-.45-1.77-.94-3.66Z"/>
    <path class="cls-136" d="m342.91,1087.65c21.13-.38,37.46-11.04,55.1-18.25,20.78-8.47,40.94-4.03,60.51,10.5,3.23,2.39,6.33,5.03,9.83,7.87-17.83,15.78-38.99,21.89-61.84,24.18,10.61,3.62,21.27,4.92,31.51,3.37,10.09-1.54,19.78-4.79,30.02-7.41-.26.72-.44,1.88-1,2.8-17.19,29.98-48.02,37.06-79.49,18.26-16.26-9.72-29.91-23.05-42.46-37.83-.64-.74-1.03-1.67-2.18-3.51Z"/>
    <path class="cls-142" d="m447.04,657.77c4.25,11.63,12.63,19.78,20.05,28.6,6.38,7.6,11.78,15.66,12.69,25.88.8,9.2-1.55,17.8-5.48,26.74-14.44-9.38-21.61-23.63-27.96-38.63-1.17,2.93,1.16,14.57,4.65,21.36,3.4,6.59,7.2,12.96,10.86,19.48-.33-.02-1.06.1-1.69-.08-16.17-4.83-26.1-17.78-27.21-34.67-1.13-17.31,4.9-32.56,12.91-47.32.18-.35.54-.61,1.19-1.36Z"/>
    <path class="cls-137" d="m510.24,762.47c8.98,7.32,19.28,9.32,28.65,13.51,11.91,5.32,16.97,15.15,18.27,27.52.03.39-.18.83-.32,1.53-11.63-.76-20.84-6.69-29.97-13,5.69,8.5,13.67,14.12,24.07,18.39-1.84.65-2.68,1.12-3.59,1.28-11.73,2.12-22.95-3.1-29-13.5-5.14-8.81-7.52-18.4-7.82-28.55-.05-2.02-.18-4.05-.31-7.17Z"/>
    <path class="cls-139" d="m286.55,1095.53c7.08-11.94,7.65-24.56,10.95-36.41,4.21-15.1,15-22.85,29.45-26.6.44-.12.97.05,1.85.11,1.17,13.97-4.27,25.96-10.14,37.91,9.11-8.27,14.34-18.76,17.58-31.86,1.1,2.06,1.79,2.98,2.16,4.04,4.61,13.56.4,27.83-10.88,36.82-9.58,7.67-20.54,12.21-32.52,14.38-2.39.44-4.79.92-8.46,1.61Z"/>
    <path class="cls-135" d="m195.01,1021.78c7.71-14.39,7.7-29.23,10.98-43.31,4.15-17.92,16.38-27.61,33.16-32.72.52-.19,1.16,0,2.18,0,2.11,16.34-3.63,30.68-9.93,45.02,10.28-10.2,15.88-22.78,18.97-38.3,1.42,2.34,2.27,3.42,2.75,4.61,6.13,15.69,1.94,32.64-10.84,43.81-10.82,9.48-23.46,15.38-37.41,18.54-2.78.64-5.58,1.35-9.87,2.36Z"/>
    <path class="cls-138" d="m337.55,1036.19c12.64-3.86,21.12-12.41,31.03-18.64,12.63-7.94,25.2-6.53,37.78.11.41.21.65.67,1.24,1.25-8.12,10.6-19.62,15.56-31.41,20.22,11.73,0,22.14-4.04,32.77-11.2-.53,2.15-.64,3.25-1.05,4.22-5.44,12.52-17.55,19.87-31.26,19.01-11.65-.75-22.25-4.55-32.09-10.69-1.97-1.23-3.99-2.42-7.02-4.29Z"/>
    <path class="cls-140" d="m468.93,1166.33c10.26-5.66,16.05-14.62,23.53-21.84,9.48-9.17,20.64-10.24,32.74-6.77.39.11.73.45,1.32.85-5.12,10.67-14.15,17.09-23.56,23.28,10.17-2.16,18.46-7.55,26.39-15.7-.07,1.97.05,2.94-.15,3.86-2.42,11.84-11.59,20.42-23.63,22.16-10.23,1.5-20.17.13-29.8-3.41-1.91-.71-3.88-1.37-6.86-2.44Z"/>
    <path class="cls-141" d="m307.05,714.17c2.8,11.5,10.09,20.15,19.11,28.74-7.94.39-13.81-2.16-19.13-6.06-6.81-5.02-10.65-11.99-12.48-20.16-3.09-13.91-.89-27.34,3.56-40.58.15-.52.58-.92.39-.63,8.81,7.72,17.66,15.38,26.38,23.1,11.76,10.44,15.67,25.35,10.52,40.54-12.18-5.24-20.58-14.6-28.35-24.95Z"/>
    <path class="cls-102" d="m107.28,324.52c.76,11.37,6.28,20.75,13.41,30.39-7.59-.92-12.74-4.31-17.13-8.87-5.65-5.88-8.18-13.1-8.57-21.17-.64-13.72,3.63-26.11,10-37.94.25-.46.7-.78.47-.53,7.13,8.77,14.26,17.47,21.29,26.25,9.43,11.81,10.72,26.6,3.33,40.18-10.71-6.96-17.13-17.19-22.81-28.31Z"/>
  </g>
</svg>