<?xml version="1.0" encoding="UTF-8"?>
<svg id="Layer_1" data-name="Layer 1" xmlns="http://www.w3.org/2000/svg" xmlns:xlink="http://www.w3.org/1999/xlink" viewBox="0 0 2391.66 631.9">
  <defs>
    <style>
      .cls-1 {
        fill: url(#linear-gradient);
      }

      .cls-2 {
        fill: url(#linear-gradient-8);
      }

      .cls-3 {
        fill: url(#linear-gradient-9);
      }

      .cls-4 {
        fill: url(#linear-gradient-3);
      }

      .cls-5 {
        fill: url(#linear-gradient-4);
      }

      .cls-6 {
        fill: url(#linear-gradient-2);
      }

      .cls-7 {
        fill: url(#linear-gradient-6);
      }

      .cls-8 {
        fill: url(#linear-gradient-7);
      }

      .cls-9 {
        fill: url(#linear-gradient-5);
      }

      .cls-10 {
        fill: url(#linear-gradient-12);
      }

      .cls-11 {
        fill: url(#linear-gradient-10);
      }

      .cls-12 {
        fill: url(#linear-gradient-11);
      }

      .cls-13 {
        fill: url(#Gold_02);
      }

      .cls-14 {
        fill: url(#Gold_02-4);
      }

      .cls-15 {
        fill: url(#Gold_02-3);
      }

      .cls-16 {
        fill: url(#Gold_02-2);
      }
    </style>
    <linearGradient id="linear-gradient" x1="0" y1="290.71" x2="838.35" y2="290.71" gradientUnits="userSpaceOnUse">
      <stop offset="0" stop-color="#272361"/>
      <stop offset=".97" stop-color="#1ea4de"/>
    </linearGradient>
    <linearGradient id="linear-gradient-2" x1="766.65" y1="367.52" x2="946.13" y2="367.52" xlink:href="#linear-gradient"/>
    <linearGradient id="linear-gradient-3" x1="793.97" y1="477.32" x2="1256.08" y2="477.32" xlink:href="#linear-gradient"/>
    <linearGradient id="linear-gradient-4" x1="1057.55" y1="367.52" x2="1237.03" y2="367.52" xlink:href="#linear-gradient"/>
    <linearGradient id="linear-gradient-5" x1="1185.15" y1="382.34" x2="1412.54" y2="382.34" xlink:href="#linear-gradient"/>
    <linearGradient id="linear-gradient-6" x1="1376.83" y1="367.52" x2="1556.31" y2="367.52" xlink:href="#linear-gradient"/>
    <linearGradient id="linear-gradient-7" x1="1491.37" y1="375.77" x2="1701.68" y2="375.77" xlink:href="#linear-gradient"/>
    <linearGradient id="linear-gradient-8" x1="1659.57" y1="384.49" x2="1862.1" y2="384.49" xlink:href="#linear-gradient"/>
    <linearGradient id="linear-gradient-9" x1="1707.19" y1="276.83" x2="2105.64" y2="276.83" xlink:href="#linear-gradient"/>
    <linearGradient id="linear-gradient-10" x1="1945.75" y1="342.38" x2="2076.96" y2="342.38" xlink:href="#linear-gradient"/>
    <linearGradient id="linear-gradient-11" x1="2043.49" y1="378.75" x2="2213.87" y2="378.75" xlink:href="#linear-gradient"/>
    <linearGradient id="linear-gradient-12" x1="2164.27" y1="382.34" x2="2391.66" y2="382.34" xlink:href="#linear-gradient"/>
    <linearGradient id="Gold_02" data-name="Gold 02" x1="1447.96" y1="490.86" x2="1447.96" y2="641.47" gradientUnits="userSpaceOnUse">
      <stop offset="0" stop-color="#b97a2a"/>
      <stop offset=".1" stop-color="#c68d3a"/>
      <stop offset=".37" stop-color="#e8bd61"/>
      <stop offset=".5" stop-color="#f5d071"/>
      <stop offset=".63" stop-color="#e8bd61"/>
      <stop offset=".9" stop-color="#c68d3a"/>
      <stop offset="1" stop-color="#b97a2a"/>
    </linearGradient>
    <linearGradient id="Gold_02-2" data-name="Gold 02" x1="1662.15" y1="490.86" x2="1662.15" y2="641.47" xlink:href="#Gold_02"/>
    <linearGradient id="Gold_02-3" data-name="Gold 02" x1="1900.08" y1="490.86" x2="1900.08" y2="641.47" xlink:href="#Gold_02"/>
    <linearGradient id="Gold_02-4" data-name="Gold 02" x1="2145.35" y1="490.86" x2="2145.35" y2="641.47" xlink:href="#Gold_02"/>
  </defs>
  <g>
    <path class="cls-1" d="m456.64,371.33c-3.55-5.32-3.55-10.64.59-10.64,1.77,0,3.55.59,5.32,1.18h2.36c95.2,1.77,201.03-40.21,247.15-128.31,26.02-49.67,26.61-107.02-11.23-150.78-102.88-118.26-449.37-47.3-570.58,28.38-83.37,52.62-169.11,175.61-41.98,235.33,5.32,2.37,10.64,8.87,11.83,13.6,1.18,5.32-1.77,7.69-7.1,5.32C-54.22,296.24-7.51,154.33,100.7,86.34,230.19,5.33,598.55-53.79,710.89,75.7c44.35,51.44,58.54,122.39,27.79,182.11-47.3,89.28-160.83,125.35-257.8,124.17,25.42,27.79,109.39,98.15,344.12,171.47,4.73,1.77,10.64,7.1,12.42,13.01,2.36,5.32,0,8.28-4.73,7.1-313.38-98.15-376.05-201.63-376.05-202.22Zm54.4-170.29c-2.36-4.14-2.96-7.69-1.18-9.46l29.56-37.25c2.36-2.96,7.69-.59,13.01,4.14,4.73,4.73,7.1,10.64,5.32,13.6-.59.59-13.6,23.06-34.89,57.35,5.91,7.69,11.83,16.56,17.74,27.2,2.96,5.32,1.77,10.05-2.36,9.46-4.73-.59-10.64-5.32-13.6-10.64-2.96-5.32-5.91-10.05-8.87-14.19-71.54,115.3-214.04,333.48-270.21,339.98-17.74,1.77-27.2-8.87-29.56-29.56-3.55-30.16,23.06-101.7,62.08-172.65,39.61-70.95,92.83-141.32,142.5-168.51,29.56-15.96,57.95-17.74,83.96,1.77l6.5-11.23Zm-276.13,358.9c55.58-13.6,192.16-222.32,261.94-335.25-18.33-9.46-38.43-5.91-60.31,5.32-49.08,26.61-101.11,96.38-139.54,166.15-37.84,67.41-63.27,134.22-62.08,163.78Z"/>
    <path class="cls-6" d="m852.21,367.19c-27.79,14.19-59.13,17.74-60.9,17.74-40.21,86.33,119.44,13.01,137.77-20.1,1.77-3.55,7.69-7.69,13.01-2.96,4.73,4.73,4.73,7.1,2.96,10.64-16.56,28.97-108.8,92.83-149.59,69.77-20.1-11.23-32.52-34.89-27.79-57.95,2.96-14.78,11.83-30.16,23.65-43.75,11.83-13.01,25.43-25.43,38.43-34.89,17.15-11.83,33.11-18.92,39.62-17.74,5.32,1.18,10.05,4.14,14.19,8.87,5.91,6.5,8.28,14.19,7.1,21.29-.59,5.32-2.96,10.64-5.91,16.56-6.5,12.42-18.33,25.43-32.52,32.52Zm-41.98-9.46c8.28-2.36,17.15-5.91,26.61-10.05,12.42-6.5,23.06-18.92,29.56-30.16,1.18-2.37,1.77-4.14,2.96-6.5-6.5,2.96-14.19,7.69-23.06,14.19-11.83,8.87-25.43,20.1-36.07,32.52Z"/>
    <path class="cls-4" d="m1240.67,477.76c4.73.59,10.64,5.32,13.6,11.24,2.96,5.32,2.36,9.46-2.37,9.46-125.35-10.64-217.59-8.28-284.4,1.18-39.61,66.81-83.96,131.26-104.06,131.26-27.2-.59-50.85-15.37-62.68-36.07-6.5-11.83-8.87-25.43-4.73-38.43,4.14-11.83,13.01-23.65,28.97-34.89,24.24-17.15,64.45-32.52,125.94-41.98,13.01-21.88,33.7-59.72,44.94-79.82-18.33,18.92-56.17,36.66-69.18,33.7-21.29-4.73-25.42-14.78-21.88-33.11,7.69-40.8,72.14-94.6,109.98-47.89,13.01-15.37,21.88-27.2,21.88-27.2,1.77-2.96,7.1-1.18,11.83,2.96,5.32,4.73,7.69,11.23,6.5,14.19l-6.5,11.23-.59.59c0,.59-30.16,58.54-66.22,121.8,64.45-7.1,149.59-7.69,258.98,1.77Zm-304.51,27.2c-44.35,9.46-75.09,21.88-94.6,36.07-14.78,10.05-23.06,21.29-26.61,31.34-2.96,9.46-1.77,17.15,1.18,23.06,5.32,8.28,18.33,14.19,34.89,14.78,15.96,0,50.85-48.49,85.14-105.25Zm70.36-142.5c-26.61-34.89-104.66,56.76-75.09,58.54,15.96,1.18,60.31-27.79,75.09-58.54Z"/>
    <path class="cls-5" d="m1143.1,367.19c-27.79,14.19-59.13,17.74-60.9,17.74-40.21,86.33,119.44,13.01,137.77-20.1,1.77-3.55,7.69-7.69,13.01-2.96,4.73,4.73,4.73,7.1,2.96,10.64-16.56,28.97-108.8,92.83-149.59,69.77-20.1-11.23-32.52-34.89-27.79-57.95,2.96-14.78,11.83-30.16,23.65-43.75,11.83-13.01,25.42-25.43,38.43-34.89,17.15-11.83,33.11-18.92,39.62-17.74,5.32,1.18,10.05,4.14,14.19,8.87,5.91,6.5,8.28,14.19,7.1,21.29-.59,5.32-2.96,10.64-5.91,16.56-6.5,12.42-18.33,25.43-32.52,32.52Zm-41.98-9.46c8.28-2.36,17.15-5.91,26.61-10.05,12.42-6.5,23.06-18.92,29.56-30.16,1.18-2.37,1.77-4.14,2.96-6.5-6.5,2.96-14.19,7.69-23.06,14.19-11.83,8.87-25.43,20.1-36.07,32.52Z"/>
    <path class="cls-9" d="m1238.89,328.17c1.77-2.96,7.69-1.77,12.42,2.96,5.32,4.73,7.69,11.23,5.91,14.19l-14.78,26.61c31.93-26.61,66.81-52.62,79.82-49.08h1.18c17.74,5.32,20.7,16.56,16.56,31.34-1.77,6.5-5.91,14.19-10.05,23.06-7.69,15.37-16.56,32.52-16.56,32.52,18.92,12.42,82.78-43.75,83.37-43.75,1.77-2.36,8.28-10.05,13.01-4.73,5.32,4.73,1.77,5.91-.59,8.87,0,0-64.45,76.27-95.19,56.17-26.61-17.15-13.6-43.16-2.37-66.22,2.37-4.73,4.73-9.46,6.5-14.19-33.7,17.74-112.34,92.83-114.71,95.2-1.77,2.37-7.1.59-11.83-3.55-4.73-5.32-7.69-11.23-5.91-14.19l53.21-95.2Z"/>
    <path class="cls-7" d="m1462.39,367.19c-27.79,14.19-59.13,17.74-60.9,17.74-40.21,86.33,119.44,13.01,137.77-20.1,1.77-3.55,7.69-7.69,13.01-2.96,4.73,4.73,4.73,7.1,2.96,10.64-16.56,28.97-108.8,92.83-149.59,69.77-20.1-11.23-32.52-34.89-27.79-57.95,2.96-14.78,11.83-30.16,23.65-43.75,11.83-13.01,25.42-25.43,38.43-34.89,17.15-11.83,33.11-18.92,39.62-17.74,5.32,1.18,10.05,4.14,14.19,8.87,5.91,6.5,8.28,14.19,7.1,21.29-.59,5.32-2.96,10.64-5.91,16.56-6.5,12.42-18.33,25.43-32.52,32.52Zm-41.98-9.46c8.28-2.36,17.15-5.91,26.61-10.05,12.42-6.5,23.06-18.92,29.56-30.16,1.18-2.37,1.77-4.14,2.96-6.5-6.5,2.96-14.19,7.69-23.06,14.19-11.83,8.87-25.43,20.1-36.07,32.52Z"/>
    <path class="cls-8" d="m1576.5,298.61c1.77-2.96,7.69-1.18,12.42,3.55,5.32,4.73,7.69,11.23,5.91,14.19l-21.88,34.89c20.69-10.05,49.08-19.51,60.9-4.73,5.32,5.91,3.55,19.51,11.23,20.1,11.24.59,27.79-1.77,43.75-6.5,3.55-1.18,7.1-4.14,10.64,1.18,4.14,5.91,1.77,7.69-1.77,8.28-17.15,5.32-45.53,11.23-57.95,10.05-15.37-1.18-20.1-5.32-33.11-20.69-8.87-10.64-61.49,36.07-61.49,36.07-1.18.59-31.93,52.62-34.89,57.95-1.77,2.96-7.69,1.18-12.42-3.55-5.32-4.73-7.69-11.23-5.91-14.19l84.55-136.58Z"/>
    <path class="cls-2" d="m1788.17,351.23c2.37,5.91.59,9.46-4.14,8.28-4.73-1.18-10.64-6.5-13.01-11.83-11.83-11.23-40.8,2.36-51.44,11.23-21.88,17.74-34.29,39.02-40.8,66.22,20.7-5.91,74.5-68.59,74.5-68.59,2.37-2.37,7.69-.59,13.01,4.73,4.14,4.73,6.5,10.05,4.73,13.01-1.18,2.96-8.28,18.33-4.73,34.89,2.36,14.19,79.23-50.26,80.41-50.85,2.36-2.36,7.1-5.32,11.83-.59,4.73,5.32,4.14,10.05,1.77,12.42-39.02,34.89-62.08,55.58-78.05,63.86-27.2,14.19-47.89,5.91-47.3-23.06-21.29,20.1-43.16,38.43-56.17,32.52-4.73-1.77-8.28-5.32-11.83-8.87-5.91-7.69-8.28-15.96-7.1-24.83.59-7.1,2.96-14.78,6.5-22.47,7.69-16.56,21.29-34.88,36.66-47.3,26.61-21.88,75.09-23.06,85.14,11.23Z"/>
    <path class="cls-3" d="m2010.48,96.39c1.77-2.36,7.69-1.18,12.42,4.14,4.73,4.73,7.1,11.23,5.32,13.6,0,.59-43.16,60.31-89.28,129.49h150.78c4.14,0,10.64,4.73,13.6,10.05,3.55,5.91,2.96,10.64-1.18,10.64h-176.79c-12.42,18.92-24.83,38.43-36.66,57.35v.59c0,2.36-1.18,3.55-2.36,3.55-36.07,58.54-55.58,92.24-49.08,104.06,10.64,20.1,130.67-75.68,130.67-76.27,2.37-1.77,5.91-2.96,10.64,2.37,4.73,5.32,1.18,8.28-1.18,10.05-.59.59-134.81,133.04-163.78,79.82-8.87-16.56,18.33-73.32,56.17-135.99-.59,0,3.55-6.5,3.55-6.5,1.18-44.94-150.18-39.02-150.18-39.02-4.14,0-10.64-4.73-13.6-10.64-3.55-5.32-2.96-10.05,1.18-10.05h199.85c49.67-77.46,99.33-146.64,99.92-147.23Zm-130.67,196.3c5.91-9.46,11.83-18.92,17.74-28.38l-73.91-2.96c17.74,7.1,46.71,18.92,56.17,31.34Z"/>
    <path class="cls-11" d="m2004.57,315.16c2.96-2.36,8.87,0,13.6,5.32,4.73,5.32,6.5,11.23,3.55,13.6-13.01,11.24-34.29,36.66-47.3,61.49-8.28,16.56-7.69,26.02-1.77,28.97,24.24,3.55,89.87-60.31,89.87-60.9,2.36-2.37,6.5-7.1,11.23-1.77,5.32,5.32,2.96,7.1.59,9.46-.59,0-98.74,106.43-124.17,62.08-8.28-14.78-4.14-34.89,5.91-54.99,13.01-25.43,34.89-52.03,48.48-63.27Zm36.66-17.15c-2.36,2.96-8.28.59-13.01-4.14-4.73-5.32-7.1-11.23-4.73-14.19l33.11-37.84c2.37-2.96,7.69-.59,13.01,4.14,4.73,5.32,6.5,11.23,4.73,14.19l-33.11,37.84Z"/>
    <path class="cls-12" d="m2084.38,332.31c2.36-1.77,8.28.59,13.01,5.91,4.73,5.32,5.91,11.23,3.55,13.6-1.77,1.18-3.55,2.36-4.73,3.55-12.42,11.23-22.47,29.56-28.97,47.89-4.73,15.37-7.1,29.56-4.14,35.48,2.96,1.18,6.5,1.18,11.23,0,5.32-1.77,11.83-5.32,17.74-11.23,8.28-7.1,15.96-17.74,23.06-31.34,4.14-7.69,7.1-15.96,9.46-24.24-10.64-8.87-18.33-19.51-23.06-30.16-4.73-10.64-6.5-21.29-5.91-28.97,1.18-8.28,4.73-14.19,11.83-15.37,5.32-.59,10.05.59,14.78,2.96,7.69,4.14,14.19,11.23,18.33,20.1,3.55,6.5,5.32,13.6,6.5,21.29,1.18,7.69,1.18,16.56,0,25.43,13.01,2.36,32.52,4.73,53.21-7.1,2.96-1.77,5.91-4.14,10.64,1.18,4.14,5.32,3.55,9.46.59,11.23-27.79,15.37-48.48,17.74-66.81,11.23-2.37,10.05-5.91,20.7-11.23,29.56-7.1,13.6-15.37,25.42-24.24,33.11-7.1,5.91-13.6,10.64-20.1,12.42-7.69,2.36-15.37,1.77-23.06-2.37-4.14-2.36-8.28-5.32-11.83-9.46-1.18-1.18-2.37-2.37-3.55-3.55-9.46-13.6-8.87-35.48-2.37-56.17,6.5-19.51,17.74-39.02,30.75-50.85,1.77-1.18,3.55-2.96,5.32-4.14Zm43.16,25.42c1.18-9.46,1.18-18.92,0-26.61-.59-5.32-1.77-10.05-2.96-13.01-.59,0,.59,0,.59,0-.59-.59-2.36-.59-4.14,0-3.55,0-5.32,3.55-5.91,8.87-.59,5.32.59,11.83,3.55,18.33,1.77,4.73,4.73,8.87,8.87,12.42Z"/>
    <path class="cls-10" d="m2218,328.17c1.77-2.96,7.69-1.77,12.42,2.96,5.32,4.73,7.69,11.23,5.91,14.19l-14.78,26.61c31.93-26.61,66.81-52.62,79.82-49.08h1.18c17.74,5.32,20.7,16.56,16.56,31.34-1.77,6.5-5.91,14.19-10.05,23.06-7.69,15.37-16.56,32.52-16.56,32.52,18.92,12.42,82.78-43.75,83.37-43.75,1.77-2.36,8.28-10.05,13.01-4.73,5.32,4.73,1.77,5.91-.59,8.87,0,0-64.45,76.27-95.19,56.17-26.61-17.15-13.6-43.16-2.37-66.22,2.37-4.73,4.73-9.46,6.5-14.19-33.7,17.74-112.34,92.83-114.71,95.2-1.77,2.37-7.1.59-11.83-3.55-4.73-5.32-7.69-11.23-5.91-14.19l53.21-95.2Z"/>
  </g>
  <g>
    <path class="cls-13" d="m1384.13,502.19c0-.58.58-.96,1.15-1.34,10.17-.19,19-.38,27.25-.96,10.17-.58,15.54-.77,20.53-.77,11.7,0,23.6,1.54,34.73,8.83,8.63,5.95,13.81,15.93,13.81,25.52,0,15.54-13.05,25.33-20.34,29.55-1.34.96-1.34,1.73-1.15,3.26.77,2.88,5.18,14.97,13.82,27.63,9.4,14.01,19.57,23.22,36.07,30.7,1.73.96,1.92,2.11,1.73,3.26,0,1.73-.77,4.03-1.34,4.03-18.23-1.54-30.89-7.29-42.98-18.23-9.59-8.44-15.16-19.19-21.68-31.09-4.03-7.29-7.48-9.21-18.42-9.21-4.41,0-7.29.19-8.83.38-1.15.38-2.5,1.54-2.5,3.07,0,13.62.38,24.56.77,35.11.19,3.26,1.15,4.61,2.11,5.37,2.11,1.73,11.32,3.07,15.73,4.41,0,.96-.77,4.8-1.34,5.56-.19.38-.77.38-2.88.38-1.92,0-18.8-.19-27.82-.19-6.72,0-10.55.58-13.05.58-2.3,0-2.88,0-3.07-.38-.77-1.73-1.34-5.18-1.15-6.52,4.99-.96,9.4-1.92,10.94-4.41,2.3-3.26,2.69-18.61,2.69-42.41v-22.83c0-11.51-.38-25.14-.58-34.35-.19-5.95-.77-6.72-13.43-9.59l-.77-5.37Zm77.14,32.04c0-15.16-10.94-27.25-27.63-27.25-5.37,0-10.17.58-13.43,1.92-1.53.58-2.11,1.73-2.69,3.65-.77,5.76-1.15,15.16-1.15,32.62,0,19,.38,19.57,1.34,20.15,1.15.38,3.84.58,6.91.58,11.7,0,23.6-2.3,29.17-9.4,4.61-5.56,7.48-13.82,7.48-22.07v-.19Z"/>
    <path class="cls-16" d="m1662.92,497.2c36.07,0,68.12,28.21,68.12,64.09,0,23.98-11.51,41.83-22.45,52.38-13.43,13.05-31.09,17.46-41.64,17.46-21.49,0-43.75-9.02-57.37-24.18-9.79-10.94-16.31-28.21-16.31-44.13,0-16.89,6.72-34.16,21.87-47.59,12.86-11.7,31.09-18.04,47.59-18.04h.19Zm-5.76,8.06c-9.98,0-20.72,4.61-28.98,13.82-10.36,11.9-13.24,28.78-13.24,41.64,0,17.85,6.33,33.58,16.69,44.33,12.86,13.24,24.95,17.65,37.99,17.65,19,0,40.3-18.42,40.3-53.15,0-17.46-4.41-34.73-17.84-49.12-7.68-8.25-19-15.16-34.73-15.16h-.19Z"/>
    <path class="cls-15" d="m1900.84,497.2c36.07,0,68.12,28.21,68.12,64.09,0,23.98-11.51,41.83-22.45,52.38-13.43,13.05-31.09,17.46-41.64,17.46-21.49,0-43.75-9.02-57.37-24.18-9.79-10.94-16.31-28.21-16.31-44.13,0-16.89,6.72-34.16,21.87-47.59,12.86-11.7,31.09-18.04,47.59-18.04h.19Zm-5.76,8.06c-9.98,0-20.72,4.61-28.98,13.82-10.36,11.9-13.24,28.78-13.24,41.64,0,17.85,6.33,33.58,16.69,44.33,12.86,13.24,24.95,17.65,37.99,17.65,19,0,40.3-18.42,40.3-53.15,0-17.46-4.41-34.73-17.84-49.12-7.68-8.25-19-15.16-34.73-15.16h-.19Z"/>
    <path class="cls-14" d="m2102.5,628.64c-11.9-.77-24.18-.96-37.42-.77-.96,0-1.54-.19-1.92-.77-.58-1.34-.77-5.95-.58-6.52,9.79-1.34,12.86-3.07,13.82-11.32,1.54-13.43,2.3-33,3.07-56.8l1.15-36.27c.19-6.14-2.3-7.48-16.12-8.44.19-1.92.96-4.8,1.54-6.14.38-.58.77-1.15,2.69-1.15,2.88,0,11.7.38,18.42.38,3.65,0,6.52,0,12.28-.19.19,3.45,1.15,7.68,1.92,9.4,9.02,20.15,33.39,63.7,44.9,83.66.58,1.15,1.92,1.34,2.5,0,13.43-25.33,31.66-61.4,42.41-84.24.96-1.73,1.54-5.18,1.73-8.63,14.58,0,23.6-.38,34.92-.58.58.96.38,5.95.19,6.72-13.24,1.15-15.54,3.26-15.73,8.63-.38,7.87,0,19.19.38,44.9.38,21.49.38,36.27.58,43.75.77,13.24,1.53,13.43,12.28,15.16,1.53.19,1.53,2.88,1.92,5.76,0,1.34-.19,1.92-.96,1.92h-15.16c-6.14,0-19.57.38-28.97,1.15l.19-4.22c.19-2.49.58-3.07,1.53-3.26,8.64-2.11,9.21-2.88,9.98-9.4.77-5.37.96-13.82,2.49-90.57,0-1.73-1.15-1.73-1.73-.77-2.69,5.37-23.79,50.47-33.58,70.8-9.79,20.15-13.24,28.21-14.01,30.32-2.69,4.61-3.45,6.33-4.99,6.33-.77,0-1.54-.58-2.3-2.3-1.15-1.53-5.56-11.13-9.02-18.61-19.38-40.49-35.11-71.76-42.21-86.35,0,16.89-.58,42.02-.38,63.51,0,20.53.58,28.01,1.34,31.47.96,3.45,3.45,4.41,9.98,5.56,2.88.38,3.26.77,3.45,2.3l-.58,5.56Z"/>
  </g>
</svg>